<mxfile host="app.diagrams.net" agent="Mozilla/5.0 (Windows NT 10.0; Win64; x64) AppleWebKit/537.36 (KHTML, like Gecko) Chrome/131.0.0.0 Safari/537.36" version="24.9.0">
  <diagram name="Page-1" id="uiOKVAOuIjuWQn5of0T6">
    <mxGraphModel dx="1489" dy="1553" grid="1" gridSize="10" guides="1" tooltips="1" connect="1" arrows="1" fold="1" page="1" pageScale="1" pageWidth="1100" pageHeight="850" math="0" shadow="0">
      <root>
        <mxCell id="0" />
        <mxCell id="1" parent="0" />
        <mxCell id="s5D7mW5d1kZrzYi8rgM7-1" value="" style="rounded=1;whiteSpace=wrap;html=1;absoluteArcSize=1;arcSize=14;strokeWidth=2;" parent="1" vertex="1">
          <mxGeometry x="45" y="-778" width="385" height="740" as="geometry" />
        </mxCell>
        <mxCell id="s5D7mW5d1kZrzYi8rgM7-2" value="" style="rounded=1;whiteSpace=wrap;html=1;" parent="1" vertex="1">
          <mxGeometry x="50" y="-698" width="120" height="60" as="geometry" />
        </mxCell>
        <mxCell id="s5D7mW5d1kZrzYi8rgM7-3" value="" style="rounded=1;whiteSpace=wrap;html=1;" parent="1" vertex="1">
          <mxGeometry x="290" y="-698" width="120" height="60" as="geometry" />
        </mxCell>
        <mxCell id="s5D7mW5d1kZrzYi8rgM7-4" value="" style="rounded=1;whiteSpace=wrap;html=1;" parent="1" vertex="1">
          <mxGeometry x="65" y="-588" width="345" height="90" as="geometry" />
        </mxCell>
        <mxCell id="s5D7mW5d1kZrzYi8rgM7-5" value="" style="rounded=1;whiteSpace=wrap;html=1;" parent="1" vertex="1">
          <mxGeometry x="385" y="-753" width="20" height="20" as="geometry" />
        </mxCell>
        <mxCell id="s5D7mW5d1kZrzYi8rgM7-6" value="" style="rounded=1;whiteSpace=wrap;html=1;" parent="1" vertex="1">
          <mxGeometry x="55" y="-768" width="135" height="40" as="geometry" />
        </mxCell>
        <mxCell id="s5D7mW5d1kZrzYi8rgM7-9" value="" style="image;aspect=fixed;html=1;points=[];align=center;fontSize=12;image=img/lib/azure2/general/Search.svg;" parent="1" vertex="1">
          <mxGeometry x="325.23" y="-758" width="29.54" height="30" as="geometry" />
        </mxCell>
        <mxCell id="s5D7mW5d1kZrzYi8rgM7-10" value="" style="shape=singleArrow;direction=south;whiteSpace=wrap;html=1;fillColor=#008a00;fontColor=#ffffff;strokeColor=#005700;" parent="1" vertex="1">
          <mxGeometry x="55" y="-683" width="20" height="30" as="geometry" />
        </mxCell>
        <mxCell id="s5D7mW5d1kZrzYi8rgM7-12" value="Money In" style="text;html=1;align=center;verticalAlign=middle;whiteSpace=wrap;rounded=0;fontStyle=1" parent="1" vertex="1">
          <mxGeometry x="80" y="-678" width="60" height="30" as="geometry" />
        </mxCell>
        <mxCell id="s5D7mW5d1kZrzYi8rgM7-13" value="" style="shape=singleArrow;direction=north;whiteSpace=wrap;html=1;fillColor=#e51400;fontColor=#ffffff;strokeColor=#B20000;" parent="1" vertex="1">
          <mxGeometry x="295" y="-678" width="20" height="30" as="geometry" />
        </mxCell>
        <mxCell id="s5D7mW5d1kZrzYi8rgM7-14" value="Money Out" style="text;html=1;align=center;verticalAlign=middle;whiteSpace=wrap;rounded=0;fontStyle=1" parent="1" vertex="1">
          <mxGeometry x="315" y="-668" width="70" height="30" as="geometry" />
        </mxCell>
        <mxCell id="s5D7mW5d1kZrzYi8rgM7-15" value="-Ksh:" style="text;html=1;align=center;verticalAlign=middle;whiteSpace=wrap;rounded=0;fontColor=#f60909;fontStyle=1" parent="1" vertex="1">
          <mxGeometry x="310" y="-688" width="60" height="30" as="geometry" />
        </mxCell>
        <mxCell id="s5D7mW5d1kZrzYi8rgM7-16" value="Ksh:" style="text;html=1;align=center;verticalAlign=middle;whiteSpace=wrap;rounded=0;fontStyle=1;fontColor=#0f6611;" parent="1" vertex="1">
          <mxGeometry x="70" y="-698" width="60" height="30" as="geometry" />
        </mxCell>
        <mxCell id="s5D7mW5d1kZrzYi8rgM7-17" value="" style="sketch=0;pointerEvents=1;shadow=0;dashed=0;html=1;strokeColor=#006EAF;labelPosition=center;verticalLabelPosition=bottom;verticalAlign=top;outlineConnect=0;align=center;shape=mxgraph.office.concepts.home;fillColor=#1ba1e2;fontColor=#ffffff;" parent="1" vertex="1">
          <mxGeometry x="50" y="-98" width="50" height="30" as="geometry" />
        </mxCell>
        <mxCell id="s5D7mW5d1kZrzYi8rgM7-18" value="" style="image;html=1;image=img/lib/clip_art/finance/Pie_Chart_128x128.png" parent="1" vertex="1">
          <mxGeometry x="170" y="-102" width="40" height="40" as="geometry" />
        </mxCell>
        <mxCell id="s5D7mW5d1kZrzYi8rgM7-19" value="" style="sketch=0;points=[[0,0,0],[0.25,0,0],[0.5,0,0],[0.75,0,0],[1,0,0],[0,1,0],[0.25,1,0],[0.5,1,0],[0.75,1,0],[1,1,0],[0,0.25,0],[0,0.5,0],[0,0.75,0],[1,0.25,0],[1,0.5,0],[1,0.75,0]];outlineConnect=0;fillColor=#b0e3e6;strokeColor=#0e8088;dashed=0;verticalLabelPosition=bottom;verticalAlign=top;align=center;html=1;fontSize=12;fontStyle=0;aspect=fixed;shape=mxgraph.aws4.resourceIcon;resIcon=mxgraph.aws4.budgets_2;" parent="1" vertex="1">
          <mxGeometry x="271.77" y="-98" width="34" height="34" as="geometry" />
        </mxCell>
        <mxCell id="s5D7mW5d1kZrzYi8rgM7-20" value="..." style="text;html=1;align=center;verticalAlign=middle;whiteSpace=wrap;rounded=0;fontStyle=1;spacingTop=0;spacing=0;spacingRight=4;fontSize=31;fontColor=#b1aaaa;" parent="1" vertex="1">
          <mxGeometry x="360" y="-108" width="50" height="30" as="geometry" />
        </mxCell>
        <mxCell id="s5D7mW5d1kZrzYi8rgM7-21" value="Transaction" style="text;html=1;align=center;verticalAlign=middle;whiteSpace=wrap;rounded=0;fontStyle=1" parent="1" vertex="1">
          <mxGeometry x="260" y="-68" width="60" height="30" as="geometry" />
        </mxCell>
        <mxCell id="s5D7mW5d1kZrzYi8rgM7-22" value="Profile" style="text;html=1;align=center;verticalAlign=middle;whiteSpace=wrap;rounded=0;fontStyle=1" parent="1" vertex="1">
          <mxGeometry x="360" y="-68" width="60" height="30" as="geometry" />
        </mxCell>
        <mxCell id="s5D7mW5d1kZrzYi8rgM7-23" value="Report" style="text;html=1;align=center;verticalAlign=middle;whiteSpace=wrap;rounded=0;fontStyle=1" parent="1" vertex="1">
          <mxGeometry x="160" y="-68" width="60" height="30" as="geometry" />
        </mxCell>
        <mxCell id="s5D7mW5d1kZrzYi8rgM7-24" value="Home" style="text;html=1;align=center;verticalAlign=middle;whiteSpace=wrap;rounded=0;fontStyle=1" parent="1" vertex="1">
          <mxGeometry x="45" y="-68" width="60" height="30" as="geometry" />
        </mxCell>
        <mxCell id="s5D7mW5d1kZrzYi8rgM7-25" value="" style="rounded=1;whiteSpace=wrap;html=1;" parent="1" vertex="1">
          <mxGeometry x="70" y="-578" width="150" height="30" as="geometry" />
        </mxCell>
        <mxCell id="s5D7mW5d1kZrzYi8rgM7-26" value="" style="rounded=1;whiteSpace=wrap;html=1;" parent="1" vertex="1">
          <mxGeometry x="345" y="-578" width="50" height="30" as="geometry" />
        </mxCell>
        <mxCell id="s5D7mW5d1kZrzYi8rgM7-27" value="" style="rounded=1;whiteSpace=wrap;html=1;" parent="1" vertex="1">
          <mxGeometry x="70" y="-538" width="150" height="30" as="geometry" />
        </mxCell>
        <mxCell id="s5D7mW5d1kZrzYi8rgM7-29" value="" style="rounded=1;whiteSpace=wrap;html=1;" parent="1" vertex="1">
          <mxGeometry x="345" y="-538" width="50" height="30" as="geometry" />
        </mxCell>
        <mxCell id="s5D7mW5d1kZrzYi8rgM7-30" value="" style="rounded=1;whiteSpace=wrap;html=1;" parent="1" vertex="1">
          <mxGeometry x="57.610000000000014" y="-298" width="352.39" height="70" as="geometry" />
        </mxCell>
        <mxCell id="s5D7mW5d1kZrzYi8rgM7-31" value="" style="rounded=1;whiteSpace=wrap;html=1;" parent="1" vertex="1">
          <mxGeometry x="60" y="-178" width="350" height="70" as="geometry" />
        </mxCell>
        <mxCell id="s5D7mW5d1kZrzYi8rgM7-33" value="Text" style="text;html=1;align=center;verticalAlign=middle;whiteSpace=wrap;rounded=0;" parent="1" vertex="1">
          <mxGeometry x="245.76999999999998" y="-448" width="60" height="30" as="geometry" />
        </mxCell>
        <mxCell id="s5D7mW5d1kZrzYi8rgM7-34" value="Period Summary&lt;div&gt;&lt;br&gt;&lt;/div&gt;" style="text;html=1;align=center;verticalAlign=middle;whiteSpace=wrap;rounded=0;fontStyle=1;fontColor=#00CCCC;" parent="1" vertex="1">
          <mxGeometry x="50" y="-478" width="60" height="30" as="geometry" />
        </mxCell>
        <mxCell id="s5D7mW5d1kZrzYi8rgM7-35" value="Top Senders/ Receivers&lt;div&gt;&lt;br&gt;&lt;/div&gt;" style="text;html=1;align=center;verticalAlign=middle;whiteSpace=wrap;rounded=0;fontStyle=1" parent="1" vertex="1">
          <mxGeometry x="40" y="-203" width="100" height="25" as="geometry" />
        </mxCell>
        <mxCell id="s5D7mW5d1kZrzYi8rgM7-36" value="&lt;b&gt;&lt;font color=&quot;#148527&quot;&gt;Top categories&lt;/font&gt;&lt;/b&gt;" style="text;html=1;align=center;verticalAlign=middle;whiteSpace=wrap;rounded=0;" parent="1" vertex="1">
          <mxGeometry x="65" y="-328" width="90" height="30" as="geometry" />
        </mxCell>
        <mxCell id="s5D7mW5d1kZrzYi8rgM7-37" value="&lt;font color=&quot;#0f5c05&quot;&gt;View All&lt;/font&gt;" style="text;html=1;align=center;verticalAlign=middle;whiteSpace=wrap;rounded=0;fontColor=#16590D;fontStyle=1" parent="1" vertex="1">
          <mxGeometry x="335" y="-618" width="60" height="30" as="geometry" />
        </mxCell>
        <mxCell id="s5D7mW5d1kZrzYi8rgM7-38" value="&lt;b&gt;Recent Transactions&lt;/b&gt;" style="text;html=1;align=center;verticalAlign=middle;whiteSpace=wrap;rounded=0;" parent="1" vertex="1">
          <mxGeometry x="60" y="-608" width="130" height="30" as="geometry" />
        </mxCell>
        <mxCell id="s5D7mW5d1kZrzYi8rgM7-39" value="&lt;font color=&quot;#0f5c05&quot;&gt;View All&lt;/font&gt;" style="text;html=1;align=center;verticalAlign=middle;whiteSpace=wrap;rounded=0;fontColor=#16590D;fontStyle=1" parent="1" vertex="1">
          <mxGeometry x="340" y="-328" width="60" height="30" as="geometry" />
        </mxCell>
        <mxCell id="s5D7mW5d1kZrzYi8rgM7-40" value="&lt;font color=&quot;#0f5c05&quot;&gt;View All&lt;/font&gt;" style="text;html=1;align=center;verticalAlign=middle;whiteSpace=wrap;rounded=0;fontColor=#16590D;fontStyle=1" parent="1" vertex="1">
          <mxGeometry x="340" y="-205.5" width="60" height="30" as="geometry" />
        </mxCell>
        <mxCell id="s5D7mW5d1kZrzYi8rgM7-46" value="" style="rounded=1;whiteSpace=wrap;html=1;fillColor=none;" parent="1" vertex="1">
          <mxGeometry x="120" y="-468" width="250" height="120" as="geometry" />
        </mxCell>
        <mxCell id="s5D7mW5d1kZrzYi8rgM7-49" value="1. Home Page" style="text;html=1;align=center;verticalAlign=middle;resizable=0;points=[];autosize=1;strokeColor=none;fillColor=none;" parent="1" vertex="1">
          <mxGeometry x="50" y="-818" width="100" height="30" as="geometry" />
        </mxCell>
        <mxCell id="s5D7mW5d1kZrzYi8rgM7-50" value="a" style="swimlane;startSize=0;" parent="1" vertex="1">
          <mxGeometry x="700" y="-778" width="410" height="730" as="geometry" />
        </mxCell>
        <mxCell id="s5D7mW5d1kZrzYi8rgM7-53" value="" style="rounded=1;whiteSpace=wrap;html=1;" parent="s5D7mW5d1kZrzYi8rgM7-50" vertex="1">
          <mxGeometry x="20" y="120" width="160" height="60" as="geometry" />
        </mxCell>
        <mxCell id="s5D7mW5d1kZrzYi8rgM7-55" value="" style="rounded=1;whiteSpace=wrap;html=1;" parent="s5D7mW5d1kZrzYi8rgM7-50" vertex="1">
          <mxGeometry x="240" y="120" width="150" height="60" as="geometry" />
        </mxCell>
        <mxCell id="s5D7mW5d1kZrzYi8rgM7-60" value="" style="shape=singleArrow;direction=north;whiteSpace=wrap;html=1;fillColor=#e51400;fontColor=#ffffff;strokeColor=#B20000;" parent="s5D7mW5d1kZrzYi8rgM7-50" vertex="1">
          <mxGeometry x="250" y="135" width="20" height="30" as="geometry" />
        </mxCell>
        <mxCell id="s5D7mW5d1kZrzYi8rgM7-62" value="" style="shape=singleArrow;direction=south;whiteSpace=wrap;html=1;fillColor=#008a00;fontColor=#ffffff;strokeColor=#005700;" parent="s5D7mW5d1kZrzYi8rgM7-50" vertex="1">
          <mxGeometry x="20" y="135" width="20" height="30" as="geometry" />
        </mxCell>
        <mxCell id="s5D7mW5d1kZrzYi8rgM7-64" value="&lt;b&gt;Financial Report&lt;/b&gt;" style="text;html=1;align=center;verticalAlign=middle;resizable=0;points=[];autosize=1;strokeColor=none;fillColor=none;" parent="s5D7mW5d1kZrzYi8rgM7-50" vertex="1">
          <mxGeometry x="20" y="10" width="120" height="30" as="geometry" />
        </mxCell>
        <mxCell id="s5D7mW5d1kZrzYi8rgM7-67" value="" style="shape=image;verticalLabelPosition=bottom;labelBackgroundColor=default;verticalAlign=top;aspect=fixed;imageAspect=0;image=data:image/png,iVBORw0KGgoAAAANSUhEUgAAAO4AAADMCAYAAAB0ip8fAAAAAXNSR0IArs4c6QAAAARnQU1BAACxjwv8YQUAAAAJcEhZcwAADsMAAA7DAcdvqGQAAEEkSURBVHhe7Z1XkF3Heee/E26aAQY5B4IgMkiCJBhBUgRpmSItrZcWaXstWardWtvrhy1v7YPLVfuwZT9srcvlB3sfLG+wZJfCelnKokxSYhYzAQIgEhEJIodBmHzDCfv9+twGLwYDYAaYAeaee/5Azz2xT+p/f6G/7nZihWTIkKGp4NZ/M2TI0ETIiJshQxMiI26GDE2IzMbNcB6hxOJocm2JcByR2JHIGT9FxEiaIW4n4s71dgHHOHHE3+QZUoiMuBnOI4q0KChJzxcILfSOskELSX3DjQV3EcNKXbCqIvRkg6v3TrXDnqS+Se7ZzYibIe2Ia3VGuHWyaoqdUNf95IAbjXpJtQqALbhoBI6jMre+IXT0IZTh9UdJJTLiZjiPMA6UqBR4/Yf0VXmWSC4r38YHLBfNHbKiC64RxZEhMdtYV9mbVk05I659fCetX3gkQMLqT6DvAt76mjzVRWMv2T0eYKWqgX6ykKQ3i8rs6wZ0A75ppDeutDWVUBqRSdw6wjA0H5zEMhgvZI6iSHzfF9d1xfPGjkX9tap4J0+Kf/KYnDu4Ryo9A5KrcP1a/YgbCwpq1MBDt5CX9kkTpW3uXInnzJNoxizV6kvicSAqvn4/qJtGZMRVVKtVkyAIGG+vxFYglriFQsEsXwuQUVRPnjIhRMU8/Kn4L7wglU8OiH/mrLg1ZazCUb0zOu9mvsHQ22h86ljfC57kUCs1mTJNZMUy8R57RIL5i8R3PCUwJ/Du9Ne4nDVhC/NrUvOipYkLUQcGBs5LWF7FeFeZ7T22t7cb8l7N/RrFMnSlpqLJ03cQbNss5/7pn2X6mRPiNKE3J9CkVRqclJMzpsv0r35V3NWrldCe5I0RrDt0Z6yKNM42pHBC3uZFyxIXslYqFQkCPntCCNAsxAXFYlFyudzI7zlWaasSKA6qUnv3bak8+6xM6j4rsZ/nBdQPah6YNlwlqK/PRftt78Qp4vze05K/9z7xvaLZFrmhuHFO7fdIPH3GZiduOg2AKwDSlstlqdVqhgjNQlrQeI9UPFZbGAki/exVLcDVHdsk+tHPZFJPl5SLrkRNSFrgRkpKJ5Cy1jtVP5RS/1mp/OSnIrt3GedVoKU8+cIqeY33ublJC1qSuEhZSAsJGlOzAVUf23ykCJxYitVeiV78pZTOnpIw50i+VvosYqrJABddFOGQB8jpsiuTT3dKRW12L+xRG54tnmkm8nBa1WnczGg54lLYLWntejODZ7Hq/nDhx6H0b9oq8b4DRvio8qi/qn00aYFWS92knH7LHI+g9nukWlRu1z45t3O7qsr6eJFrmrlYab4q+mK0HHFRiyGrJe6VJC2qqCW3Vasb0+DtjWCdcxuPY90mu82i8bjG7ZeCvXccbMDmeSW43MePfyalgLYeCrxuNIU62T8YgdIiUn0z9lS6I7BcrSiCEg4SPb9d7WVPjyloLdInVc+TmutLFBb1fjRDlYI8SRQHUtFrOVVHQv2NfDgUy4Cf0501DlByBVp/RFJxKzLAPQW+BHFB89Fjo2pCQL1+1XWMQ8o8bYCETZqrIge5q+/PtOFqBRVWZOL3f65LA5qPymJNXJtjmh0tR9zB0ulyxEWabd++Xfbu3WuIxLGbNm2SHTt2nG+OaawASJZ0lkTW82vPBzTp2PMPHz4s+/btM8s2j5HA5k0FY5evhNqZc+J0d+vHVxbobZjCfpniHBcnSv8j66RcmGqOC/Izpe/xh6Q8bbZKsQGVdf0mOTlXfCVeQQnsRGVxXNVsPJXkEBWp7lclVH4HXkWCaqjkc6WtUlOix9I7dZacffAh6Xv010RmLpeSnhfkqqr49utR2N+udE+eLOWOyeKpbpzjPUNdJTE2u2Eq7878Ju8FaoednRKd69JN+o70L6GRaUDLERcyDheQ/AW1k/72b//WEPHcuXPyl3/5l/LKK68YoiDp9uzZY/Jk+fTp0/LJJ5/ImTNnzPl2P06knp4e6VaygOPHj58n9vvvvy+vvvqq2c95HN/X12f2jQTDIazFwKlOKahtrBTUEk6YoN7LBSFJFyKeMkncp5+S3vvu1VpHJd4990rxmd+Q3ptmax4l6Vq4SgYWLJFur02iyTOkZ/ZiCZatkL58h0o4X3oWzJHyzcv0UrFUZ84Wzy9JMGW6psmq1QYSliZI/snPS2XmTAn9ojhffUYqEyZJvx7LBfsmT5PuWXPFe+zzIg/eI9U89qrer6YkJBOSXgy2ev2BPu9pLeih/jMUTwW8P1fUl1sCOHOGU8ipsSEk0hXC3nzzzUb6QjiimO6880750z/9UyMtf/SjH8nSpUvlr//6rw1xX3/9dVm7dq381V/9lXz00Ufy4x//WKZNm2ak9fTp0+XZZ5+Vu+66y0jeXbt2GWL39/fL3/3d3xnpvnv3bpP/SKKkaBbi+OFI7L7Dh6T9g/f1Pag0rEspegGxwL/B8EodUl62RjpWzZXorU3i/cbjUjtXk9yeXeIuu0WKX35KvFXL5HR7XkqLbhLvS49KvGSRxDNnSWd7TiZ/9d+Ip89TGeiX6L67JeyqSvmhOyQ/sSDegSPiTJgltYfukbZvfVfa1S6trn9IzgU1abtfpfruXSKPrZfc9Cni3HGXOKW8uNu2GsmuD6B3l0jRoe47jiFqXvrX3iHts2ZLTZ9VFfPk2GG8p/GMlpO4w4WViJDqd3/3d+X555+Xbdu2yRe+8AVDjg0bNsi8efOEeo+K4OOPP5Zly5bJn/3Zn5ntkO/IkSOybt06k8fEiRMNKT/44ANZsmSJIdrgCuTxxx+XP/mTPzHXttcfCzh5X+3NxGQwwfmaHJPMposQq1QsnzouA+dOS5+SqOvsEdU4AunPu+Ktv1OO/egn0vnj52TW535dVeO8eL94Q2rf+ankJk6VaQ+vl55jfXJ676fSocQbOHZG4lW3y+SlqyX6+KDhT78fSllVXl9voNauqrGSFoL15YtSNK1dSrVjJ6V7804l8qeS6+pTSW4JeGkvMXVREIXiFQr6rinqdRu4uTlrkBH3MkCCoS4vX75cjh07Jm1tbSZBuI6ODunt7ZWuri7zayOZOB7k83kjmTn3a1/7mqxcudLk99xzz8maNWsuIi1gP4QdjtQcDHvOcLSJQscEtR/102Nn6+Fe5CQEhghDINS8C0FZgn95V0qqrk7cplKx3RcvVCnfUxC/o6DP70lvRe1IpyZeuU8mVPol8JWItUDaznZK8b23pPOdd6Tjo48lf/dK1XxC8Y+e0vuOpb2vVwqY28vulOqsmyVS6Vr85LC+DyWzJq/QpnKTtudAilrhuKopBB7dCfS+eV+XqOSIkIr1OxT0W8W6zBPymwak4ylGAAg1HEAE7NiZandBwCeffFLuvfdeIylnzZolt912myxevFj+4i/+Qr74xS8agqIOQ74ZM2YY1frzn/+8fOMb35CtW7ea7Zw/depUmT179nmn1aRJk8y2CRMmGKnMceQ/HPJCUojOOSQwnPPaVIU9N22WeDVfAlfPC5UITrluL16MmhK07fRxcXbslGjTO+IcPir5I3skqvTIqe8/K9Puv18Kn/u8BN/83+KdOSUDZZGThUCiE0ek/0c/l9y0CdLx1G/JRKci0dkT4lZUYr78qrjY1xjNatO7P31O4qfWS/Hf/r6UX3hevCPHpbhvt9T+838Sf+Z0GahGMn/XR+Ivv0m6Zi+SklYIuJtCDylakkgrnsRdReVhXGjixYGc1XfrT5lhPM15I5xVTqdA5LZcyCOPi4QczmPbY/ht9CJDaMgMaZCwLIPBebLOsZDq5MmT8s1vflOeeOIJY982gmPI35LQSt0rkdBer1QqDbtCAqGeV/vJz8X76bOIJbX9CpKPlDx0ihvimo7qpYHra+Evi1tTzcLrk6o7QfcEUigPSKWdsMKC5HS5WsR5HGi2gUrcNskFFSkjMUNfakGvBHc/KN49d0nfd/5JJveekZpWhDnN3wk9Cd02zdsXp9aNP1giPy95pyiRqs6uVi7lgr6fuEP8sKzX4xoUYP0uSsTYDfUe9Zf3pus4o+I4LwPP/KbknvyS5PVV0deYusmEY1/+1Y57tGSsMt7eK3mXeS0Qh1+SJdZQZLL7LPFA47kAO5cwS6QyZLf5NF6ncRsY6lqN4DiujbS+0rGNINYq1zMgXf/9v0qH2uGBr2SMB7SwKwmGykeJUNXKyYsqKs2KSsKyEreo63qfSmbaY91IbXboolkE5grEDiuh3ar4aj0EqvJG+mq6OqZKTu3Oju5OcQKIlNd9erxH5JOSV/Pqz6lKHGgNgDyOtdLQW3IjmoRi8VQVr+gz+0rYvF6MN0XvJe4h0O106fMSA1h6ZsyXCf/tv0jZnyAl3V9TxuaIZ2bnCN7XeERLEhcJhxf3UkQcz2j8XNw70hb1fSQwDSNa8IOXXxL5wbNSVBKHBU+LsxKAQj0IkRIt1kLvKiHocePXdF0rKJp3VIgpmZVASipX+YLNGSmBXLWbQ36lZmzQqp+TfIAii3RVghN3QZ6BpxIwNPkop4xUpBdP5JZVEutGkw/Pqs+N91jv2zWEVSLrBQN6+nPLSF5dyIVIYiU/WsjTv500IUF6PdbYvPrsHpLXnNS84GlbDkhFnExW/W1GQFr65Vo1fSSgnyoUzd2/ToKH1kt3UdVgCrJK1qGRV6npqWRWdbjmSU1/XZWWEE9U0rqRr2RSIit5QlRdRKuSw0W6xTndpvcZYI8qyX09L8c951Viow6rtOWy+JfgqRIMtZfrYf/WtKII0WI0byQ0jrJQxWrg67kqaYn6yqtE51pubFzQclbNhtr6x8S97369F8hqaK7701PgW1LiWiBxkbxIYAAZ7OsYT5KYexp8b9i0dOu7Kmg+xPLWlFw+Tp7vfUuit98TT21JLRGGR/UrsVov+MhKyKrSEaJiQ9IUo4SqKYlyKk3xTJeVmIVQ8zaqr5LQyZsQxVItUlU1rxJR9+UqKkghOPatXt9VckIpB4eSLuk1jZRVpRtCAkiMIy2vZE/2KQm1JoiQznqTflw1eQb6XnIPPSTB73xFK4i88VaX/chIe5dQzLrE1Zdo8m1WtDRxAfYm9i6/vAqbkMbjhbxUMBaoxSQk7dXfX0DxNeosDAgr3RK9u1Gc11+T4Pgx8at9hkAqm/XimmDSOADfhVsGhD1Su7COJI+VlO7CZVL73IOSe+BuVeVxbBGQkhyfNrQ8cS0ghyUwy+PptaDakyDsqFQocSABdp6qkdilNT/xfsc9XRIfOSjlDUri3fukcLZXcv1lveY4Ia6mmj66q4Q0JC7mJZ4yQbwFC8W7/yGRxQskbu8QX5/LjAethEa4phEZcVsRStYAxuqn93D0KBmoDGqqcppucTijiF/Wgo9VqHtYuPE4X1L1hs2yqu66WEPNVpWZe8fsNjHJOLz0AXBIpREZcVsQdHHDZjUM1l9GiYCesED/UiqUuCypvcth42V8Vi2qjhISLdn4iJGqujm5RxxX5sdIYxxwZhaDlOrKGXFbEMhPxkym2cT8Nw6gWCqqW1LY6z5msw9SBG7ivLvh0KKKewkN4QIdWNmKdNVbTeoiRU13c1gunbzNiNuSUKLy0U37q/6iYvIbOVWVVFrSVcIaP3KdG+PExE2IWScimrzZwO1SuyRit75J/6mda9DA7zQhI26GDE2IlNZHGTKkGxlxM2RoQmTEzZChCZERN0OGJkRG3DEA/r5Gn1/m/8sw2kg9cS2Jrhd5hiIsUUmN8cYZMlwrUt8cZB+POOTGbnxX0x1uJOC6Qb3D/FhfK0PrITXEZYQJhk+lmx7d3RgDigHc9u/fL3PnzjUDjzNSBJKPIVoZL+pSYD/DqpLnrbfeasaFsmAUC0ZvvOWWWww5GZ510aJFF1QKDNHKuFKdnZ3ne/MwbjLXJE/60R44cMCcs3DhwvpZGTIMH6lRlSEbpGU8YwZbe/vtt420Y+A2iIP0IyF5IQ9gCBvS4Lrr6NGj5hxICwkb93MdRnwEbOdYKgMqCIZvZZnhaegvaysJBoMjMSD697//fbONQegmT55s8mGd+7D9gu0IHdxnSurVDKOMVNm4tsubHd2CQo+khQCWFBYQDqm6c+dOM3tAIyAdJEMqWnJZ2GtY2GVmJyAxCwHXRDJDXPaznevxC0nPnj0rJ06cMJKb6zDWMsRHY6ByYZB0JDkVAcdmyDAYqSEuBGEKj5dfflnefPNNI2mBHeGiUZUFn376qVGBb7/99ovIiaoNsSANqixks4CMg/MCCxYsMAOho44jPRuPo+KAyOSFJOfeOIbtkJRzV6xYIadOnTLPwFQmzIzAWMxUQo0oI4Cpg5TgsdQ0hUKfdzZflCImz6rpTau9HXM8E1oHuoO9GZoZqSEu0hX1k+FPGefYzs9jVc1GKQkYF5mpRd566y1Dbo6zCen38MMPG5Jt3LhRtmzZUj8r6dRu87S/AJLaUSkaE7C/VlpbQrOMxOV6TFvC+eSP/YwU5roQvBFu1ynp/OlPpPx/viPO339Pat/4ttT+4Tsi3/jHC9Pf/6P0/49virtfVXm9TXPFyDHd9ZIuexmaGakhLsB+RTriCGqUkkMBSceg5atWrTIqaSMgJKSC3JAKR5MFajRkYmxmrsM1LTEHk2wwICzSH3XYkh7HGXk+8sgjRiIzaiMS9/777ze2Mg6uRnht02Xab/4rcf7oa9L3H74izh//vuT+/VdE/ujrF6Y//LqUHnxACnp//YwEYe5RK42I0RmTvDI0L1Iz6RfSFZuROXsYfBwnFV5lbE5UYYjMOoSBKKinzJSHPXr33XefH5uYBHk+/PBD45iC3KivHM+5kA9V+r333jPXQ9VmBgKkM7YyUpPENVGFOdY2B6Eicz8krkdeeL9RybkXrjt//nyjAaAJQHBUaPK2YI4d14klpymvEpRxo6gDHAYUtt3b6ilWu1qKrtSmzdBjVVH2GHmRvrZK4kzoNjVavluffXwrNW80uJ/L3UscJQYtd22OUp0Jk9cdYpSK+IMPxekoSrxipRkTOVI13EmOTkaHyNC0SJWq3Ijh1kdWynL89ajDrnSdK1Yg7GdgJexkYysnic2DU7LLMfMKYNcykXyM3Y9EztDUaBrijpRYI5WglsBDgTGagrgmkSa9iXpSQ5HbGZTO774o4ShjJj8kXvIsyfZQ1xiRInGkfXY8x2GM2qEekmTmglXioS7zi9rr87eBsDapXDVz8nBVRmp0VONmBgK2Z2huDFtV5jDbVGELONuwyQY3WYw1cPDQLordeTXA44xdiZ3J/V+R5LHKrJiRmBRKnOSFQYCLX12yhb82T35JbGs83i7rvvOXb9iviyoj6yuNOH/wZ9mChs0W0YYtIu0lqaxYKkUqAIeBxxlaXAldPyZDc2JEVS+hejhdcOjYOWFx9FwvEKAA6ayD6GqAl5jACyKZaMsdHHwxFAIVVcwEF6KiMlivGfYT8HeIZEfKNynZFGuKdP2zxNCiUL++0yQ9zybzaXSbSQCGNhDbADLW0xBwPFfCSuV8DpxOrhmaH1flnNq8ebMp+DRf0BZ66NAh0yzCjOws4w2F1MTwIqFJBCAgmYnXhfSQn+MIWqAyIFIIzy8eWDytSFWabPi1kvFXv/qVISzTVHI+16MdlGWOI9SRtlzuDw8tzTV4hadPn27um0f99re/LU8//bS5P7y3kJdgB+v5HRI4hIykJRV0A+sooEMNWzr4ddZpo8RkJEKz/5I25qDtQxzmmIqjjsb959n5GcIt28xUI86aW5WwzOOj5zI3j65lBG5uXPP3o2mDWdlt0D0kZBlVFmKyj6YatkFg2johC9IbYrPOfiQ3x9AEQ2UAkVFhG88j0mnOnDkmSIEKgvOQmFOmTDHEZplr0kxDxYIqjYS1dRPHc7+QFkBuyE9+lwNz1TC3TRxB7rqdGqqmQb4XJd2tJD0vQRmxmxEHsYmdsibOR0JyLNv51XXOY7oPMzOWJjP/K6MHJ3YspDPEE+KscTfZfC4Nc2lNl3+6DM2Ia5a4EBR7cfXq1YZcRPxYMn/5y1820hCSQjjaRpFuEBLpCYHuuOMOI1GJHELiEvbHTO4QF8nKMdwi52zatMm0hZI4f/369eZ6HEdb5zvvvCP33HOP2ffQQw8ZonKv9913n1GvIfW3vvUt+YM/+AOTH/myDWl7OTs3lj4VuCppq8elp/M5KTqHxQ9UffYvJk5sCAnByU8JZzy/SiBXj/e0wjBqcF6YRoPR95nTNWZZSek6eT2D7ZpyJV3WfDQv3yuRhUKPzVFhkIen9633FCdtvK5TUBqTly7zSV1Papt3ayUQirfmNmGWdg/y62+s1/Tqz3u5584wfnFVxIVAEPemm266gLhW4kHO1157zYQNIv2Qppa4NuCAqCDUW/JCxWUbpPvFL34hd955p5GySEIim5CaqNQff/yxka5EMkFOoo0ISSSmF+Ju2LDBRBy98cYb54lL/myDuOD5558394o0ppcPwRoEURAsYdVrAipQoy90uiXe4DBUaWdsSl7bEIWezcwba+xX/RcRWUW8cOI9RnVFwjKjOkOTR8x4p/fJvLLMThepRMZ95IUqnfVYpgKJXSKtiDXWiqY6IOcqkXTVeqV/4lHpi7H1u1Ur8KXqtuu1RNaeOy6liR0iP5wmuRO98vp9K5So7eK7oRS9nJnm0td3S4WF6cFzU0GSWL+SBpLhxuOqiLt161ZDXMhEwUe1ReXE6wx5bKf1devWmX0UBuzMHTt2GPUYUhCHC8k5j3xeeeUVcw6FCfUY1ffdd981NizERqpCNKTqvffea1TlBx980GwjZJFrQmBsWrr0EQ3Fo7GPcy1xsbW5R+4LYpIXkh4Jv2bNGvnlL38pX/jCF0wkEwT/rC/u4NcEAS8mrjmqfih7OYRpIHnLUDPZmNgoENFVYjLbOlovpq/JEvY5/WYun04l96FqJAe6YjnYWZHOI+1yvDMn3bVTsvZ3OqWvcEaz5ILJ3ylRj/z2qU0yd+CIOM9OlfjoRPnn5TMliPOqiVOJqOah+euHNxUbJCVRubLOO8Hc4ZugUaENZRh/uCriNgt4NJIl7dUDaQs0n0ayNixaJO21OK+USIYgHKb/ENLmePIgm0SSVvXQahhIRe3fPqcqZ9SGPdFXln1hLKdOOnL806KcPlqUSk9R4lDV4ZxK6rikqne/rPvqdgk79ivx85olancsRb3+00rcJf1HJPj+NHEPt8l3Vs5SsqpardczT6LP4FM5DII1H4B9b2gflsQQGql8WUdehuuCVBN39MBsOxT0ejI2pin/FyB5k0llATnZTQuSyjldwgKtSZeqvJ3Vfunyq3JayefUyuKETA7dJkfPxLLrk0hOn2qX3rMdMtCnRAqVsGSrajREd3UdhxM1woonN0v74lOadU7vhcqiLCW99tOdG2V5zz4Z+Nlc8Q+0yz+tnqVXL4inarvpGcSNj6Au43kgNaRF+8HsQXNiPcONQUbcYcFKXECJhzmGmxeAN8ketteUaP2aOuMeOTXQK4fibjmcPycdKjDnxe0y25sgswpzlE4l2XGgW15+qyp7TnRIr7RLjQgn8lEp7SrzcSgZ6I/5XC7qtSdLfu1DmbzyE+MAY6rJSP/mVBr/VucHckfPTul/TvPfO1m+ddssfYKC5JS4tCEzd6ydWmc44Jqo0Y2aC+v4CTA1aILLcH0xpsS1PWGwcTs6Ooy9yuUax3C6FthudDhXRgS9B/4ZyaUwVLRvwWzDXryQnInKm4BYX7ZHyqyBuCq9ccWkalyTcqiSVG33UCUqcRhFx1cq5mWadMhcd4rak6HUAk8Ong5k096avLrXk0NdSMxE/fS4UEjHfxxESjA603Jhc4NqJVtHtjJvxl17Zf7De7R68JSwaAVKXXei/OvODXJPzyYZeH6OtH/cLv/rttm6B4913fFFlvZhRgC+HZK3kcQs42jEIQmRUacz59bYY8yIi9MKxxAfk9EkcDYFFGgtlHiWRwM4w7h9Cs5IENaJy9zOAIJZPpjgKJVIMeqkfTNu0rcXv+7poFeOB31yNqrKkUK3SjFf2kJPpjlFme6XpKSFtqjrntsuJScvBZOPSjr91xc6cuC0L69vKctHR3051utr5eGPRGtVQFBIHsuURadl2RPvSb+fV8Krmqzvt0+Xv3R6h6w7u0X6X5ovbds9+V+3z1XC59UGDsTHHlb2XwVvLwm+AUSmAuU74+TD+59h7DBmxKX9lI+HU4MmFppl6DSO1IVo1Mo4PQBtvoQy4nlmH5KUbXh+WafdlnXyIdEcRN54p/EI26AKOp1jgyHR2X7w4EHjJWU/EsEiRoqh/apg6IeouljC56P/Qj+WShxKVWla1oO6gx45UDsjZ5W8PVrgC64v84KCLPQnys35yeLHtKsiMZm3Xc9XKVyCrOTq1qQWhXK2kpNfbYvkXzZ3yZlam0rnou51JR/WqwsjXYcLiKtU12tMmHtObvnCuyITiYSqKSkDCbQi+PWuPfJw5yapvDZPilscJe68hLieEjccG+LaBIH5trQWQGCcW0jprL14dDFmHenxPBKySHgjNTHtsbTVIn2xidiHk4P2WqKlWKZJhmYJCEt0FaTnOD6+bXOFmAzwhurNuSTaj1HZaLpgzCmuRUd3SEuBYQwqCpEFBGVm84qSqi8ckM6oW/Z5PbJfTsuntU45WD4lJ9U2PavUrahwmyuTZKU/Ux7wFshad7bc5E+TiV6HCZiIYT800LqAlltDQV3Fw7vzeCjPbwnkH94K5I0DrnSHHVq4c+YYevQYdXyEhZpaljO5muuHMnXRKXHay4kmbfRoV+bVumVx33EJD00Q/5gjG2d16H5PtWtVcYm+0oNHm0Y8A6TlFwLzrag4qUD5VgThZBg9jBlxIQ0SFgLTZkv7KTUx22mnJUIKokFSJC3E5cPzsdkO2VGzaZ+FlKjYEJh2WrtuE1KYNlfyICAD6UrElh0FA2Iz1KpFVSXpxuCYvBIelP3xOUZzk+mxK/Nzk2S+P0luyk+Vm72psiieJgujyaoGt0u7W5BQJSOTQft6rBc4qg4rTZBeWgkYGuJtVsN556mqfPe1w/LcVl8+PNQm3dWiMg7bMiFqAiWZqq7QcOheQJcDElNJoqdNWdQphUk9psowSoTew8xar9zSf1SiwyXxj7pjTlzIOrjyYZ2gFipqKmbIi/2bYXQw0hIzbBDtRG2LdCUYguAL0PiBqZmJeOIDs8yvbWKAnIA8IDT77TZU6cEOEI6xsMdb0g9GQR/7dneG/F5xlXyleKusn7hMlpTmyzSVrJPiiTJB2iRHu6fvSJCLpapSF29sXqVaTvMNvUgqBbVa9VGUCkoYT05XRDYe7ZfvvXNU/u/7vfJpdb6c6G83jqM4JPAhUlVVKxpVnxmZkRnT3SBnfkcG3p8+k95LbcCVSNXwSFVkfWBzL2r7SJn70krG1ftPjr9x4P1jqrz44otG87EOygzXhjEjLqoRdi5jJ9GNjphkSGuJZJchNmoV0U6ETyJRARKTKClUYexZPjbSmONQudnWmBeSF0Bo1G2cJIQ+EiVlvc+fwZWSV5IiMcMoro6nqmvibaUTQEyIoqEBkimWgvLCU9s1gHxuIh9LZn9VzpRj+fn2UH70fqccPdMvNbddTnd3yKGjSiS1JyOks6vXUYL6mnJKVo/OCtyz2tORqtQjgj4yMhpQ/ms9U3SBvsKR5PR9qCIgVUclfERE1KBK6wbxxRKViLuXXnrJmEEZrg3jsh2XD4ukbXQoMQgcknTJkiX1LZdHEKisUxJDWuKfn3rqqfqeS6MiAyoBcypZIYK+FhcVWKQvrijFVQrrptg7pwXRlSCeIO9+XJOXNn8iD62cLmtvnS7ffeecvLhRz/DHTiXkc2mVp5ULneFDmbZMK7vHt6hkD5W4rlQ8R5YNdMvXjr4p3odtIm8UPvMqj5FzariwRY2KljBUTBmLRk0sw5UxZhL3WmAD3xvB+uBtlwOxzNi7dExodExdDrmoZNThyKmqJIQKiUqKau1LTWpen+w7NVFe3OrKt1/vknPVfvmPTy2VZQumyN8/3yUvbCmpGj06bdSXgnVMGWgFEwx06C+xWUpnLfz0DKphNpiExE3IcqPRKB/QlGhlwJFom/QyjAzjUuI2qr0WQ227ErCZAarzsGp0JQBttSGqMzaovhl69vQ5sRw/58mvPjylUjmUu5ZPl8UzHOnw+2XTwTb5+zc9OXYuVtJXpd/3JR+OoQfVBFrgJHNU5dZnauuSe7/+jgT5qt45Nm4oM8MB+cPDv5LCFt3/8sQxbw4aDihmQ30DHI5EX+GwzDB8jIrERa3Fa0yCLCRrf14NICeJj02eODT46CMhLcDOJg1XDQtN9JISTwnhOBXpVxV51zlHfvCmKz9785DceusU+fpj8+TuuUpatVPf+KQkf/OikvqMvkYlw4DTJqXq2DZ78CTYs2ZZK5R4oF2cMgEoOMmwo2OpqBod0D6kRE3OuPG41DegRYC+2DQFXkuZaTWMCnFRS7FB6QqH95jml4sdQiMHxMXBhYf6enxUBnXxtfgPVAN5a28gz24YkB17u+XeRf3y7740V26fkZeiSv4+5cNPd/TI/3zZlZ6qSjAlCM0tBFRESuAxRb05x6hJdCwI9R5Oq0ahG7gy9EBxNvtH5euOPfD+07/ads/McGWMyqelQz0j7tNWR9AEy0hHpCVeYSs5CaLAaQQIzGA77XxWpQV4mLF7AJKWiCnbHsy5eJuJmLL7aQemuYGQQnK2ie5ypvAOASQWTTLsD/VPlZhjqUpN7+dXBxz5mxdOS+eZsjxzR4c8sXaqLF/QZuKNc9KrxOyVH2wS+daGdumq5aTqQSLfeKQZMhU7cyxhegEZH7g+A0Pd5CpSPT7bPBNXDtyK9LmqaUQ5qfl6b3RSsBFaCgg+3oA0pgzQikBFbc2iDJfGqARg4O3l5RNySDMNQRY0uvMhcCghLQnC4DikMt5iIpsgLaQjEopmID4a6+TDhyRPRtAg7BE7lXPYRt7kS9sgqhYhkaUiEUlJ6J/QrolrKaoqmSjOFNzPkpFXut2JKhKoXXq215W9B8vyyqay9Jf75TcemC733FyUIjahMXRpNHJV0ubk/30Yy/c/qGnh8tVe9NUOxq5UCacEIb5CFXzj8R0zYJ+q1DVqMhfU5/HUvp20/DBPpc+rz+3k5MGuQ+Kd1eff0y4fTm/X83wTgOEp2ekkMbbVy8jBd6V8EPpKBc03zfr9XhpjVsIgK5KXUSmImCG+2MYgW3WIaCc7bAzgw0Fc2naJpuKXc/mFoJyL5OZ8JC0flmYFRuOg5wuFuKZyce+ZQH7wwUklWb989/3KRel7pPdq8t338vLdNwN5cWOn9GsOv35fSZ65f4rcVNKCpOSoOUXNjwHFNVXLsm3jZtm9dY/Ku5xeyVWyYlXSZIT/GfWU13mdRBqk1UrFUZKeOamVVkibNFoEhd2V/pza9qYy0cqKyovbuk63drWw5hDtvVTS+E4yDI0xIS4qMCRESgLsX4ImCMKgAwD7AL/UtBzPL2GJEBGbGZUY2I/JMUhzwiCZRY9fttlaOXQKRtJBqZnteVk1d4amSXLXnFDunB2YxHKSqnLnvB5ZdVOnPHB7IE8/MkseXlySeXqeUUKJZXSqmle/5FSiMh7U3n1HZOdH78uS4G25I79VinEgZb3/qsMgb7FKMlXvIq0+xlLaGtj8aceFiao5BO0SDpRENWOlLrqBmhGqLrOXsaDNUWgY+gtYH4+wZYFEjDrpevg2mhGjWsp44Rb2IwDrIcZphX2K5IW0JD4Mv9g1OCeYBb5xnCP2ca7tZYJdSyWA1LX7AKF+JIruJJWYqxcUZc08X1Yt6JDVCyeZxDJp5QJdnjdF7po9U5ZPmiZFJVyoEswo0mqsssRwMBISH1WTQ5/ukrfefU/6TeUwIHNkl9xW3C5TnD49jumlk655RnEdaSTUiJE4p0yqfz5U5v5zxENzDxA1lF4lruPqe+cd6b/xphpfCXxXRvDcu3dvRt4hMGrtuGSDGouUtY4piEZzDCTDScV2EiREDSLQgmNQg5HEnAMpyQPy8gvRsWc5DjWaYyAsjjAcXOSVVAzJ5BoUaOuocU1gAqMgXgjzyJqMXUpRZz3Uc1A9VdpChFD/wY0j+w/KL958V7zyGdPJoOq0SU5t59ipyL78o7Kvb5GcjduU/Hq+2o84hHzU2LEC92o810parqM36XiRLP61HTL1lgMmrhq/8m8e/0TW7vpUon+ZLN9cPN2MtFFxtYpRlTqkswGHjXPwndCoGHQQkyvDZxiXARg3CvZVUEkAejARLkkFYbc1Ak/2Af9O2dG3RsqxVlhUAsoI469WQhEg4ZnJuxhWRncMkcfoIJYF9+yXKfdtllzIPL998kD5oKzfvE/i56bKd2+eIUGc0ztI5DFxG58pzuMfVP6MtW37b2ewulaGCwCBke4EBqANXAqMkbww3CVrS6o2e12GyMQ85AO1tWsq/YlpxpurhE0U8bFDWKZjAYOiU/n4Ekgb7FQS67pK5maundGyaI3gN0OCjLgNsFIVe5suaKj3Q0lai0jtyHx0RmZE22RJ20GZ6PZKRQ8P6Zxg2luRvYk6PpZAUeg/64tDN0G9NuGQFXoI0XSkyZDWqO9UHs1HYb4B7fuvvvpqfUuGjLhDAC847ccUGJuGQi4Kpd+n7WhAFtQ2y8riXpnoD5gg/8BRe15J4uFYwfl1iTxGA2QdlUvi1hhCp6LXCtUWL4njB4bIkJamIRNplZxR/20e8A34JsQDZAEaGXEvAvYsgSDDCb3LRYGxY10lRjE6J3PinbKm8JFMlT5hdEbagHnB0MQIvLGCCtFqt1YgFSWuXpX25P4op6q8FnBD1uYj6lDAu0zLA5pQqyMjbgOoyXFG0eQ0HDBvbkHJy3Aw/e5E/e2WueEmubltv5RU8qqpmziBjdMLlZl/yTb+mB9N1w5HqmVX4lohGcFS76fMIOlml/6t1xrJ9UbnijcKVKyYMUE9dLZVkRG3DmpzInbwJINLqccXwKVTga8HR8YdRK9dvMeLax/IrcUdMjXqVbVVKwTdTz9ZOiB85qJiqW5/jgJCV2XtycW6FAiUPdFOb6rEzqWFKHFP6d8RjSg5PsE3YmSTVlaZM+LWgZQlUscS9mpbyYxUc6uyMNokq9p2SHuhS6r6lh1VqfOhZ6KbOIYhcFiioehaQX6o5l2nUc6ZnjOpEmpezjyPfZJhVEXjGo3NdfghiHVvVWTErYORMoh/plAQ4HH1oOnHU9u3R2ZGu2WFv1+mOkjeWMlK9z86PtCsoTRSlZZhcEYDjkr+yrmSSte2hMlq25b9oomcaoQKYKM9NysgL4noO7qQtmpUVUZcBTU3To9GDEtVHgJGvmlh6vMniKc276Jwi6wu7ZcOr9cMHBeo7cnIjjktb/BntJxW3G/XKezcohKTAe0iKecK3JCR6YarTUxYYCtVfkmEx+JpbkW0PHGxkxgNkpr7asl6EepiDVJ6sUreYJPavNtU8naxU6WvpzYvi7iKrl1iGLcXM4RVJqgOXtB1wj1U4hr7W29C/3Mlnm6UnnBcAAeV/XathpYkrlW3AKNr0F1wtMBUJHStK2mFoFatlN02XSvLrHCHLC7tkAn5HhMjjZuK8aESSmnB09tJVFj2sG34SKS22rQ1V3o7tWKo97ut+l7SflvPF4s6yXckuY9fUNHimxisLbUCWlri0tFhtIfFsVIN8kJhgjDoxO5GVZkf75JVSt6pqkJzReoOvM2AvywmtnCybcTwVAqdnSqB2rfFsF0qObzcSYVA18MYf7O9wRQA4tLBhPGqaCZqJbQkca2NRM+j62UjhWqb+VFZ5lc/lKVt26Tk08NIGaSJAA5IDmGhuh/qep3QwwVZoUV0dyp/VdpGbk0CLy8u3RRVNU+y44+mkWU97sGIKa0WlNGyEpdCTuD6cCKkRgs1lXp0OJgeHZSVxY0y2eul86AmOiTWzPCuOdWek26BIxeLnDZwNm9Gw2DWhSqDDGBvG6KSn5G/9ZQeoDER7dZKaFniErSOV3LUHFJXgJl2RF93OVeTtqBblgY7ZEV+h3S4St7YlYpSN0Kd1VQzkncEYtEcmtjGUXmyRAN5rSRCqZimICKMkg59SfhjysRtHQxEaEdNaQW0JHGpoe0kZNfLI4kDioHlmDsocEMJ4prMlp2yqrBVZrrdut/V7UpuFZuQdyRC0ZAS2irho2pBwj7fSN8KswGej1UeQYZNBipfmomYuaJVoqlakrg4Mmxo4/UCpII8HvMSOb5UmU0vrshcJe/S0maZ5vZIFCp5PUap4AxU+MBougyP42jS/5cEg9sxZGtQZVoSJs6uSY9bUFFP9/7k2sZuHqHt3AywLQSMnmKH9k07WpK4kHY0m4CGA6QiWjn9Y1Fck35D+jdUyet8ouTdIlORvCGRxkpUZrlXkhPrXPWUxmaM5EtrB44wVKxSXfleUYnrxIFWAip9TdgjhOUYrpxOQN6gPu62JXKa0ZLEZRRJVOTx8IFxS/m1AZkT7paldEzwuxNbV/eZUTPMtJ/6qxtM394rwpGwPFEz9oQRHsNcfebB+t+k9mAhPbB+CtRkxmW+ng7HG4WWJS6wzUI3EjQJMaSrH8YyN/5ElrVtNKNH1vS28Dij/uYiVZ/NJGSX7tmTUJP9rvSeLkocJFFTQb6gFUHilMKOTivsd8Tp2ArjMbcccRnuk/Gk7Ie+0cRlwutY7drIq0qp2iPzw32ysrBdOtx+idWoLTNStBIbYqIyD4nzj8DnjKXaN0HyTptpfqoicfXX2rkm8NGI3vSBb0nnA4Jq0o6WIy7tfTearI2I3YpExpb1peyrchyFMtPdLrcXt8gM76zeK2oyvY30Yw2DcMxm0N+tB6IqqykQejRDEYSBWp7+z823padX2u3cliIukvZ6O6WuDCVl7GrSj6GFjn/MnDA33CCr2rbKjKBspGTNK0u+RmFkaJrQeJp90/QRGW8zbbgQlL9hf1Hc2mypuEpeH7s4Z6Ssq2RmaJu0A++ynRgurWgp4mL/4LgYT7VxQtVE27WJv3FckI7oU1k6cZNMds7pelEqqlK7ZiypZGLrigehkxElEy0Cd5YrUehIT6cSms4MPp5kXaZSMJknV0gz+L7Wj5FWtBRx8TgSlH5tHeWvDyIlWFvQL3OD3bIcb7N7WphShOYhLF7XIbhCf0PPhEkaUWsAMX05d4Jha0pSy7GeyGPj7ko5b6nAaDE4evRofUs60TLExdNIFzA+bDPYP/CLTgd5VYfn1LbKivYPZVJUVps1lgDpqY/g6XM4qmbjvEqcT5yI6u1I76lJSteSBHktyHHts2P4j92cUvBtmboGdTnNA6i3DHGZyhPi0tbXHMR1laSBqsJVyauknBF+Kqsn0lR0RvcEUlGpWu80aPrfWpFr22y7TxalFjCboDnC7DtP7pSDQAxIO9zROpsRLUNcmgmYTiSxBZsATlXcoF2pplLTLYgXRjKz9pGsKm6RyV6XClYloUrWnP5gw1pY4kb9E6RSi5S4dT3aPDfHpZ++fGO+d5r76LaUxKUmBs1g42KnMguBU7dl4Z3jFGROsENW5rbJdFWbI6cmoV+RnEpWugUSWYUTmVkUgvyAdJ6eI23MZKAgCKPX1wogqimP0/vZIS0JOxfyphUtQ1xGcEwDoigvM50Dsqz9XRPbzERfAz6qc0HVal1V9do4ryq+uD0lGWibKgOeL4Uaw8NiHyN90y5zE1xuwrZmR8sQNzW9RhxXCtV+mVneLcvbdspk97RK0JzawVVhFEks4kg1igneWZkf5WTGvDWy4s67ZdHchVLQ7bHpLdQaSLON2zLz4/7whz80Q5w0O5hexCEQMvRNO+6x3FLZ13evnHLaZZKqwbfP75N1K3KydmlOir4vfq0i5VxJSlGibh84sl92b98tBw8dNuokaBq7f4SYOnWqPPPMM/W1dKFlJG5qHBVazdIkVPMiycU1mRF+IsuL78ni0kn5/UdD+eMnOuTRlTnp0GN8IrK8opmShHirOHJk4fyb5dFHH5XHHnvMTBidZhApl1a0BHFRKtLSpoezygs6lIZq0zp5KUokc+Od8od3npIvro5leqksjtrBSd9btX3V7k36Jijj9T9hlXkl7C233CLr16+XXI5+v0rqekoTcE5ZrSJtaAniIm1Tow7yHK6SUwlMM1AYhbJ46SpZvXqJkrKo3CwlTHVz4rq+0tsRT88pEDGW09P1H/yEpPPmzZOVK1emkrSA1oO0St2WIC7NQGksmGDChAmybt06Ey00XNh34asNvHbtWmML2maUtCGtfXNbgrhpHREBoiExG23V4ZCvcf4dCL9mzZr6nnSBCiojbhMjrR8PiTlr1iyzbIl4NZgzZ44hf9q0koy4TQ4+XhpVZRxLo+EZRgIXi8X6WrqQEbeJ0SwdC0YKiEs3xWsFeaAyX63EHs+wYa5pQ0sQF5UyjcSlQhqNAcBpMklr5TYaFdt4REsQN63SBKfbaKiCaQ3I55unNcikZYibRkBaOoxbIDGHKzUbj7OdztNYuaX127cEcbEF0wjIZ0c0RGoOl7j2GBtVtGnTJvObRmTEbWJg4zZHH9yRAQnJdCrbt28/T8bhPCfnWZLv2rXLjM9k19MEnjMjbhMDOyetMasUzg0bNsjBgwdHpOpy7IkTJ8y5jQEZaQLfvFQq1dfShZZRldPaTgnZGN3jjTfeMN0WhyM1OQa79qWXXkpXHPcgUGGjbaURLUFcMHHixPpS+mDJ+5Of/EQ++OCDSxKYbajWzCNL/+Q0j4II2tvb60vpQ8t0pH/11Vdlz5499bX0gs9JgZ00aZLMnz/fSB3aaOklA2kZFYJR/lvhsy9YsECefPLJ+lq60DLExXOKNGoF8EkbP6u1X+12u5523HrrrabnlH0XaXrmllGVp0yZUl9qDViHk/UyNxK5VdDR0VFfSh9ahrh4F1ulEFvJ0vhr03Cai5oZjdLVOiTts6cJLUNcPiKdzvmwrSh9GpG2QjwYNAPxvdPsnGop4qI6WRUyQ3pBxwI0LBx0aUXLEBfvapptngwJbKXc1tZmUlrRMsQFM2fOTG0EVYYEmEE0fzEQXprRUsSdPXu2UaNa3cZNO5C6tOGmGS1FXFRlbJ/Mxk0v+LaoyIxcmWa0FHEBoyJmSC8whZYsWVJfSy9ajrh33HFHagPPMyRdOFevXl1fSy9ajrg0B82dO/e8nZvZu82Pxm85Y8aM1PbBbUTLERfcdNNN551UGXHTAb4jlTJjRGfETSnwLhOQkdYRAFsNlrQ4phYuXJj6sE7QksTFuzxt2jTjyGiFj5x2QFjIy3edPn16fWu60ZKlFgfGsmXLUj0ZWCsB4lIJ33777S3jeGxZccP8sNTOGXGbH3zDyZMny4oVK+pb0o+W1hPvueeeTFVOAZC4SNtWQkuXWjyQxC9naG7QC4gmvlZCSxOXHkNE2VBjZ2hOYNvefPPNRlVuJbQ0cSEsti41NnZSZu82Hxh6txUipQaj5Q08Oh0QBgkyyds8oJKl+97999+f6pEuLoXMM6OgaYhoKitxM+k7PmG/i/02DD/bqp1GMuLWceedd54fXCzD+AcqMsOvtqqWlBG3Dtp0ly5der42z9Tm8YfGb0JHeSRuRtwWB3HLtAXaqUoyVXn8warJfCNs27ROnzocZMRtAMO3MmVFKxeI8QykKyGNn/vc51I9F9RwkBF3EGgPxN7Neg6NT6xatcr07mp1ZMQdBGp12gWxn2huyDA+QKAFfggq1WwEk4y4Q4KO2KhjBGZA3szevbHg/dNW+/jjj6d2ouqRIiPuJcBIgY888kiqB9VuFuBzwBmFDyJDgoy4lwGB63fffbdZzqTujQEqMu21ixcvrm/JADLiXgbYu0TmrF27NhtI/QaALpc00VF5Zs7CC5ER9wqg8EBc4pmzvrvXD1SadIy/7777svc+BLI3MgxQiKj5rbrGeiZ9Rx+8U1Rj3i/9pDNJe2lkxB0m8DTjIMlsrbEFpGXCrsceeyyLHb8MHK3lMtExAlQqFdm4caNs3brVFLIMowekLf2jH3jggcyDfAVkxL0KMDrke++9Jx9//HEWpDFKwI5lJIuHH364JQY0v1ZkxL1KIB22bdsmH374oZTL5cyBcpWg+BEJhQ/hrrvuymzaYSIj7jWAV7dr1y558803DZEzjBy8QzzHEDer/IaPjLijgGPHjsn7778vJ0+evIjAmR2cYHAx470wmwSeY0YfyTAyZMQdJfT19cnmzZtl+/bt5wtpRtoL0fheGF0T0tI9L3tPI0dG3FHG3r175Z133pH+/v7zBZJX3MqF0z4/2gidBLBlb7vttvreDFeDjLijDAonKjPS99ChQ6bQ4nnGfmtF8vI+eG4S/Wjplkc7bWbPXhsy4o4RaO89ePCgvP3222aZ19yKxOW58RoTvEIbbRZUMTrIiDvG6O7uNo6rI0eOGAI3Ik1kHupZaI9Fyt57770yderU+tYMo4GMuNcJR48eld27d8v+/fulWq0aVdG++mYnr30OS17aYhctWmTGq0YtztpmRx8Zca8jeNV4n1977TUjgW1BTwNx7TMwvMz69evN2F1peLbxioy4NwC88sOHDxsJTBswZLYF3H6O8VrgG+/PLjN5GpIVCbtw4cKMrNcBGXFvIIh57urqkhMnTpi4587OTrOdT2I/y3jwvtp7aSwq3Bd26/Lly819M0rFjBkz6nszjDUy4o4jQAB6HaFGDwwMmG22OeVGgiLCPUBWvMKzZs0yRGV+YfDpp5+aeG0kbiZtrw8y4o4z8DkI3kCFPnXqlCHzmTNnzjcpgUY19UpEafy89thLbbMOM5Ldjho8ZcoUI13p3A5Z6XLXeN2enh7ZsWNHNsP/dURG3HEMpG2tVjOpt7fXtAuTIHJjUIclWuOntMuNxCQ1EsueZ5e5Hk04hCFiq+IZ7ujoMO2wjLTIsfb4RnAuTV4MVt7qMwxcL2TEbUJAMIh8+vRpOXv2rJw7d85IaT4lhGa/JaIdFxryWaLzS6KZBtWX8aPxAhP0D/GuZsBxosUYYOCJJ54YktwZRhcZcVMESGqJa0lrSQxJSZawlryjRTKu8cILL5hgCyqADBcCR+TVVIiXQmaQpAgQElUXKcpA7khPK01ZZhv7UHs5djQlI3lBWpq4rkUW0ExGtJnFhg0bjDZxteBeRlM24ThkAIWR4oMPPjB+i9FCRtwMowYkLSRBjb9aYL83nm8jzdiGpx3zAE0CIMVQ0TEVrJbBMts4h+PorfXGG28YPwH7MS24BsuA43AAUjnQng7wkNttPA+/XJvzcNQxNy/OQtZJ5El+3A/ncQ+2ssBx13jPowXvzxX15QwZrhkUcAopkv5qAOmYJ8g6uZBudLSntxXkPX78uCEWWgT7uB7hpEh8lvfs2WOu/8knn5igENYhJM42JN6BAwdMPhAMxxtRbJCM48iX+3799deNRoL2QNs0+3bu3Hle1YWIdE/E6w8xOY5r0RYPidEauB/IjdMOcD84+0ZrELxM4mYYVSB18Xyj7g4n2WYuK6Eo8HYZWHUee5wugbQVE7ACGZGizKyIN5v9kI6ZJyA6+8mbDvuQHKJt2bLF7GMbxIWMhGiuWbPGtE0jfSEpBCNfBq9DxUWa0tTFAO1UChwH6entxDNQKWB+0I2TvOlrzDsgf/JhWB7yH01kxM0wqoAkSCkkDNKN4IzLJVTNRkBAVE4LliEvEhBYxxpkoo0ZQCLalyH0vn37jFTmPI6hErDkRzoi0bFTOZ79nAvsZOZssz2ZkPqoyWwbCow3Rv6MtU0lQv5IWwiMOg3BrYQdTccUyIibYVQBsZYuXWqkDJKHCKvLJbr9QSxLLsiC1AOotjjTKPyDJTKkhSgsQxSkG4SEdEhRSANwyNlzkYwQFcmJBGYOZAJH2G/VbTSGTZs2meOxjznW3hvgWKQulQQJScwzcz9IfCoENAAqAvLnvqhEbP6jhczGzTDqoICOJDWCwo9EZdhb1F3mKYYYVhJaKQrhIQskg6RUFqijkB4blP0QGIKitkJgVF80AaQy+5iNkeszThgSk0qD2Gvw0UcfmeuhmrMPwkNGSIjnnvPQFnCeUcFwba5JXlQkkBapi0rO9dhH5BkV0Wgga8fN0DSgqA4m+rUAG/jdd981BEVar1u37rzqPN6RETdDSwO1FzUWidlMMyhkxM2QoQmROacyZGhCZMTNkKEJkRE3Q4YmREbcDBmaEBlxM2RoQmTEzZChCZERN0OGJkRG3AwZmhAZcTNkaDqI/H9wSeJVNLKn+gAAAABJRU5ErkJggg==;" parent="s5D7mW5d1kZrzYi8rgM7-50" vertex="1">
          <mxGeometry x="86" y="300" width="238" height="204" as="geometry" />
        </mxCell>
        <mxCell id="s5D7mW5d1kZrzYi8rgM7-68" value="" style="rounded=1;whiteSpace=wrap;html=1;fillColor=none;" parent="s5D7mW5d1kZrzYi8rgM7-50" vertex="1">
          <mxGeometry x="86" y="302" width="250" height="200" as="geometry" />
        </mxCell>
        <mxCell id="s5D7mW5d1kZrzYi8rgM7-70" value="Expenses" style="text;html=1;align=center;verticalAlign=middle;whiteSpace=wrap;rounded=0;fontStyle=1" parent="s5D7mW5d1kZrzYi8rgM7-50" vertex="1">
          <mxGeometry x="296" y="150" width="70" height="30" as="geometry" />
        </mxCell>
        <mxCell id="s5D7mW5d1kZrzYi8rgM7-71" value="-Ksh:" style="text;html=1;align=center;verticalAlign=middle;whiteSpace=wrap;rounded=0;fontColor=#f60909;fontStyle=1" parent="s5D7mW5d1kZrzYi8rgM7-50" vertex="1">
          <mxGeometry x="285" y="125" width="60" height="30" as="geometry" />
        </mxCell>
        <mxCell id="s5D7mW5d1kZrzYi8rgM7-72" value="Ksh:" style="text;html=1;align=center;verticalAlign=middle;whiteSpace=wrap;rounded=0;fontStyle=1;fontColor=#0f6611;" parent="s5D7mW5d1kZrzYi8rgM7-50" vertex="1">
          <mxGeometry x="40" y="125" width="60" height="30" as="geometry" />
        </mxCell>
        <mxCell id="s5D7mW5d1kZrzYi8rgM7-73" value="Income" style="text;html=1;align=center;verticalAlign=middle;whiteSpace=wrap;rounded=0;fontStyle=1" parent="s5D7mW5d1kZrzYi8rgM7-50" vertex="1">
          <mxGeometry x="50" y="150" width="60" height="30" as="geometry" />
        </mxCell>
        <mxCell id="s5D7mW5d1kZrzYi8rgM7-74" value="July 2024" style="rounded=1;whiteSpace=wrap;html=1;" parent="s5D7mW5d1kZrzYi8rgM7-50" vertex="1">
          <mxGeometry x="70" y="50" width="70" height="30" as="geometry" />
        </mxCell>
        <mxCell id="s5D7mW5d1kZrzYi8rgM7-76" value="Sept 2024" style="rounded=1;whiteSpace=wrap;html=1;" parent="s5D7mW5d1kZrzYi8rgM7-50" vertex="1">
          <mxGeometry x="296" y="50" width="70" height="30" as="geometry" />
        </mxCell>
        <mxCell id="s5D7mW5d1kZrzYi8rgM7-75" value="Aug 2024" style="rounded=1;whiteSpace=wrap;html=1;" parent="s5D7mW5d1kZrzYi8rgM7-50" vertex="1">
          <mxGeometry x="180" y="50" width="70" height="30" as="geometry" />
        </mxCell>
        <mxCell id="s5D7mW5d1kZrzYi8rgM7-81" value="" style="shape=image;html=1;verticalAlign=top;verticalLabelPosition=bottom;labelBackgroundColor=#ffffff;imageAspect=0;aspect=fixed;image=https://cdn4.iconfinder.com/data/icons/evil-icons-user-interface/64/arrow_right2-128.png;direction=west;" parent="s5D7mW5d1kZrzYi8rgM7-50" vertex="1">
          <mxGeometry x="10" y="50" width="30" height="30" as="geometry" />
        </mxCell>
        <mxCell id="s5D7mW5d1kZrzYi8rgM7-79" value="" style="shape=image;html=1;verticalAlign=top;verticalLabelPosition=bottom;labelBackgroundColor=#ffffff;imageAspect=0;aspect=fixed;image=https://cdn4.iconfinder.com/data/icons/evil-icons-user-interface/64/arrow_right2-128.png" parent="s5D7mW5d1kZrzYi8rgM7-50" vertex="1">
          <mxGeometry x="380" y="50" width="30" height="30" as="geometry" />
        </mxCell>
        <mxCell id="s5D7mW5d1kZrzYi8rgM7-83" value="" style="image;aspect=fixed;html=1;points=[];align=center;fontSize=12;image=img/lib/azure2/general/Search.svg;" parent="s5D7mW5d1kZrzYi8rgM7-50" vertex="1">
          <mxGeometry x="296" y="10" width="29.54" height="30" as="geometry" />
        </mxCell>
        <mxCell id="s5D7mW5d1kZrzYi8rgM7-138" value="" style="rounded=1;whiteSpace=wrap;html=1;" parent="s5D7mW5d1kZrzYi8rgM7-50" vertex="1">
          <mxGeometry x="30" y="560" width="360" height="140" as="geometry" />
        </mxCell>
        <mxCell id="s5D7mW5d1kZrzYi8rgM7-51" value="2. Report Page" style="text;html=1;align=center;verticalAlign=middle;resizable=0;points=[];autosize=1;strokeColor=none;fillColor=none;" parent="1" vertex="1">
          <mxGeometry x="700" y="-818" width="100" height="30" as="geometry" />
        </mxCell>
        <mxCell id="s5D7mW5d1kZrzYi8rgM7-69" value="" style="shape=image;verticalLabelPosition=bottom;labelBackgroundColor=default;verticalAlign=top;aspect=fixed;imageAspect=0;image=data:image/png,iVBORw0KGgoAAAANSUhEUgAAAOoAAAB2CAYAAADGMA92AAAAAXNSR0IArs4c6QAAAARnQU1BAACxjwv8YQUAAAAJcEhZcwAADsMAAA7DAcdvqGQAAD7iSURBVHhe7Z1prCVJdtfP3d++77VvXd093T2jaYMA22iMEF5ASLblAcMHBBJ8QsAHhIRkEAJhWbLANoNG2MJYyDYe28PYHxiPPWObQcxg42F6qe6qrvXVW+vt+3p3zi8y47689917311ehmta718V72ZGRsSJOHFOxDmRkZmRokIucIELvNSI+r8XuMAFXmJcKOoFLvAdgCqKiiVc8IMPomwoQa8bq9mLLBTT/rmiFO2nseeleP5U0LjABS5QE1V81JI2qY5F5Pj4WObnVqWjIylTU2MST0T0QkQODtIyO/tCIpGcdHb2yPXr47K7m5G5uTmNi8jY2KiMjA7K+tqWrK5uSjwekZGRIRkeHoBqicbFpH6BC5yNGjOqh1wuL4sLKzI6MqhKOm6UTSSvoSBzs0syOjoid+7ckrXVLTk6ymrcoty4cVVu3rou089mJZfNycbGlty+dU0uX56U5eVVU+4FLnCB5lChqCdKqtOeZDNZnSUPZGZ2QR4+fCaHRxn/msj+Xkb6+7uM8nZ0pDTdnuTzBenu7pDOjpiWlFPlJX1RkqmYhoSk02oeX+ACF2gadRUVozgWi8urr92UocEB2drc13gvCymjMfUxIwX9ZabVuKLOtt6hKnBC/3LiRag1LIkEcdVxdHQke3t7cnh4KNls1sRxbIM9Pzg4ML9Y7LlcrnSeyXiDCOc2DmC6c075hULBpNvZ2SnLwzFhf5/2iRlQbBn5fN4Ee055gLRBOpQVzAMt6JDODlBcI5AOBPPQFtpk0xCATW/P4Y09t3za3d01cbQR8Ms5AVTLw7EN9tymqcVb+gdaNo/lLee0N8indnlreQeq8ZZzgs1j6RAH6vHW8onrtIcAqvHJ9nO7vCUfv6c8zQZR20HU8lCuzo4eSSajOlN2SiaN2UuWiCTiMU8ANd3xcUZSqQ7vml+PnNY5mYzrecw/Jy+X9V+Vym5sbMja2pphWlAwrHAEzwlWmOy5ZQppbRygI21nkIf4xcVFcx4UDM63trbMOWXZMhAKgj23Hba9vV2KA5YO51YwZmdnTbtsp1o6BEBZ9tzmsWXaNPwG6cAbG2cFY2FhwbTJCjb139zcNAGQzpbZCm8tn+if+fn5Up4gb+ERdOx5u7yFd0tLS+bc0kF5oUH9OA/maYa3lk8cw7vl5WVzXo230OTc9iH1Jw11BI3ylvTwjoGmFdTd8EAlnj59KhPjl5TQrvT2dqu526uV31WCBWX+ngwPD5kFpLffflN/X2iegnR1JbRhR3L79nVl+IIqcad2SEayuYxcu3bNL70cKysrmq9LafT6MeEAxsPQ0dFRPyY80DHQ6ehgEAsPKBDWysDAgB8TDhA8FGB8fNyPCQ8vXrww7UEmwgQDKYufQ0NDfkx4mJmZkcuXL6u1qRNYk6g9oyro/OvXr8tx+kiZ1iODg32ytr6hnXWonTWiYcgo4FtvvW7SX7kyZfzWWCwm129cNnGTU+NqGhclkUzI1NSUiauGVCrVUgOaBW2ClgsgZNFoXRafC5LJZF234rwAjbAHHQv6CDkKG7TJBe9AZ2enGRRaQdNbCJnGu7u7PQGslbOFuthqtNqQRuGKDvi4temCd+2hHVpND/eYpqVZIuItJp0KLYABwMWqMP6O9VHCBn4J/lHYoD3WJwwT9A/95ALWHw0b+JwEF2DNAJ+8FYRvlzUIBM1Fx+CfuhBqgAK1unjQDGiPXcgIE/SPXbwJGyiPC94x+LjgHWCQs7Nqs2hTUcleLTSPRs0Bmmkaq8H+2lD5TyNNniCg48LMAfjcLmhh4bigAw0XPjdw1Ucu0U6b2nzMrVbW5ivEqIYQnLWgxNgXU/MhpiZ2oah0NBSVAXmtSzRaUMrQ1r/aLBVfPSwXLLtU72IBgdEaOmELNzMdQhD2Yhy8w3Rj8SpsYCXAu7AXlJA7eOdCHrBGWCRrRR7alCA7a1WG5mFvZJ+FZN6bK3ORmETyMUlro6Oqj7FiXqIZvVKISMGoqHZwlapAw4XfCKxgh41GedcuoOHCHAUu2+SCDmhH7tzYMQ2g0cWkgmplrhiVnKpiIaIz47Hm+9rX5PAnf0q2fvrfS/qb/1OH412dYXWOjZ4WKkY1e/M6bHCT34Vg4wu78B1dLya5GFDtriIX4J5tq4NCe4qqCkMoFLzfUmgBjVrgiH1M58xEoSiRWF4y3/iG5H7z16Vz5qEMPH4o2S/+tuTe/wjjVyfU6mZTW9Z+E6BTXNByRQcarmYfaLlqkws67aKuVtEAtlh9+9vvaXhfll6saSQXdBrPity//1i+9a13ZWPd207F5PHee/flW3/yjhwfedsLd3f25Z1v39P879adybjt09hGBHxPNW6VVl6VtfjhM+nOHktWZ9qIRnZv70h0ga1n+Kmnm8cN+56eHv8sXAwPDzvZxAHvuJkeNuBdf3+/fxYu+vr6nPiN7AlwwTvATqtWF5TqKGrRmG1HqnC3b92Su6+8IqOjgyaeAej59Iz09nXLm2++bh5pS6ez8uTJc7l8+ZK89tpdefDgieRzBVleWpfXX3/NlDE/v2iU1/tjg4dTO5P0EoYPtPBKi0UWj1hE0tiojuxRfIuisE8mH4tKIqfzLM5qNKf5VHE1njm1EtBwsRgCWl04aBa0x8WAAA0XygNQHhc7k+CdK3kobRRqAXUVFUU4PsrJysqq+ls73iprJK+jQkF2dw9lbGxQR9mYhk7Z2d2TTDonIyP9OmN16HFGjlV5mfVSqbh0dHZI+jjor5UrKv5cmZ9lFNT7Nbn0N8KCUTEmMTW1I6qsSY3LRY4lrudR9Vcxd2ORpF5XoSJPlc0X0LCbpcPG+vq6Ez+L9rjws+AdvqMLsDnAxf1NfG5XG2BWV1dbdh3qqjcjGg+HT05NGlN2cR6TEvUpSjaT19GVkSgiiSR+Ko8snWxYiMV5TI60nnLGdNYj1AKzNx1jV0qLqnjRjB7nc2ZmxvfVcUA2NM2BOdfRNo9qMvMGBwC9pHR5aABQLmXySzzHQTqAYxuAzUMgj81H4Bqw5wRAWfbc5rGbOBrJY9rcJB1bfxZ5gnSC9QfV8thzmyaYh3pUywPfoFWNjm1zZR57TgD18thyOWZQsBtggnWpl8cGUFn/Wnlojx0QKvOAyjzB+oN6eWwa8hCgRT1aQexfKfzjMmBq6n+dLZPSpbNhIp6Qg8NjGRri6ZaIzrJb5omDRCImC/Pretwne/s8WTFs8i8sLMvExKiO9ns6yw5qpQuyvrah10fJHoB3wqxgn2xhgMAcWVlalt3DAzlSgd9Udfz8N74qX7z3J/KtmWkZHB2WQVXe/B99UxL+ExD6x4w8OxMTsjt1Xfp6O3Wm3jZb+ZhxMD1gFqtv0IFp+F08ToX/zMiKb8TsTh7iMMHoAEZDu9OIzfY83cF1AnmoO7MA59Sd+pCGX/JQDo9T2RGcPLQZOsSRh3aThrqi5PjS1I30xOGLUj71J87yyT4+hWDQRmZy6mPpkIc4fm0eWxdbf57AIT0BuvCJOOjSfvjEo3RWUUlj+UQe6KJYtpzz4C3n+MS0hXykwZ2Ap9Q/mKcZ3jIIUH/ocEybkGVoVvLW8p805KF9lG35xm8jvOXYtqcV87fmhgceAmfWfP58QW7duqrEN4wgXL06aSq+ubGrHVOUickRuff+R/Ln/8Kn1Fd9obNrTHq1Qc+fz8mn335dnj6ZleHhMTWBM0ZpXnnlOlSh4BHyJ3UaQafRCTSEkPFHJOL/7de/LL/6+F3Jqj4mdQB5vbtH/vOP/yMZ/oXPS/y9d6Wg+YoRzafFHn3/X5Hoj3xWOhIoiTfDAhjJMbSCdOzIB/DDuB7MA4gD5COuMg91JACbhzS2U87KQzqr1KAROrb+dsODzROsf608Z7WZ41p5qtHhHNj6N0oH2DzBNpOG88r618tjUa3NpGs2z1ltPisPsG22sHVpFnV2JilxnbF2dvZ1VFmRlPqily5Nyd5uRvZ1tLh2fVxmZ5blOHOg8Vd0tFGvsBCTp9MzaqoW5caNK5JU35SXoC2oyczMOzU1YWboaorKCMRCBaMw8FJoZ2kb9wpZ+ZEvfF4ebe/o/Ktmt5LqOz6U//gDf0e+9/e+Ih3vv1+mqOkf+H6J/9jflLjxUb2OtWAEhXGMjmGDEZ2ZJuwFGDsDhL16aU35sJ8ZBsxayAIzVJhghgVhP/cKmHkHBwdLg00zqDMHe1rf398jr756SxXvmjItoaNJVoZHvQeUr12flLt3b6vQo1yYniK3b9/QuJsmLejuSun5Dbl586qnpCVQ/snIAsOsT2KgCodSMvigb3s6I8c1Ll5Un7gQkVw8JseanoUklLQMdUYsTF4EzgVQIDvahgkGH+tnhQn6xwp22LCmYthAFjBrXYDJqOa8eAbqKyryboN/wCtAe3o6USE9LV1U6ChhFaQUrX+MpgXiCOUnVVG6ojX0X8lkFpjyUTVbtbGGvl5khbcSZzGjVWY1C5TUBS1ofJzogKCJGSZc9RFoxeS1qKOo9dEO0WrAJAjbdAOYomG/ssSCV5aEbboBeOfClMc8ZBOHC4yMjDS4AaY9sLjjwpQHY2NjxkdtBS0r6nnD1agGHRfmKHA1WrucFVzxDrhoEzRc8a4dvDSKysILvlbYwMdiocIFWDwo87tDAu1x4TvSP/STC3CrywXvWEfAH3aB0DY8uESrJkGzwGQ/b7O9Flpdim8WrtoDXNK6wAka1A7uCwVGAiyFYDDggDSs1NnVOs4xLTgOxnnxQeD/1PTnypK2Jyj4PS6W4gG+TytL8c2C9rjw5+gffHwXgI4L3sE3F7wDbH5odaBrTFF5CsUEc6K6Uq5kJr6oFTBplLkmcEEVUrXUVM1/EXctcM+s5v3GsrZV0G4S3IB21TEokAtLgfa42CwfvM8dNlBU+ips0B5X8sDAHfJiUlQWF1ckneZenZ0RRebmFs0TM3t7nn+UyeRkZmZepp/Nqz+DfxGRw6O0PNPz58+J435V9RGFbWIufFRouPJR2Y7mykd1xTuXPqqLe8N226EL4KO2em/4TEVlRez582VZWOAt+Aidzmg6e05PzxnFnZqalHv3PjTpnjyZ1lG3Q4aGB+XB/Y80Lirzcy9kbGzSbJxYXFg2eT2y5QpL2S5WFGFUcItXmLD7icMG7XHRJpe8g44reWhVeZpFO4P2mYrKaH18fChDQzyLeoLtrQPz7Clfb+vq6tQRkG+u5OXSpREZGOiSfCEvR4c8LSDS0xPT0CuHh7V3BGFWufBJoOHCTASYVC5MX0xEF2aiS97Rno8T70A7JnZdTjACMF3fuHFJmcZqqZ0dopLXgTXBR6AUbFQonz0K2qlxjeP+njdzxtn/V2dyYROCiw0P+I049S7ATXsXgs1NexcLZNBwtVmEjRUufEf8RhebRQAbHlqdjKo/5uYr1O6O+nM7aenu6tYZc8swrkuPwfLyivkAEt9HffFixQg/tv7ExJhejaqvOieTE5fMBv6h4QFVeu4rbun14apuKo8C2cfPMHs6Uh2ytr5qfJWjg4x8YfpdOchoIVEWqKIMFfKZyRty+8kTiW6ua5FaaMR7PnV7fFz2L9+S3u6U+lTel8S4z8jCAT4JjzdBg4GFlUwGI+Lxv2gH6Tnn/hrXMcHso0oMXgwoPFrGHlH8NgQYy4O6QgflZHVvenrapCEOYbB0CAgI9PDNuW5nENJAh0Ae+2gWgQUW4uET56SH1rNnz0w9oEUarlOupUNaWzfqRR4+ykVZ9FklHdpHWfbxLdpP39Nm+7gZgwP155w08Ja+g0/UpV3eEkddoEN6WxfLW8rlupEVpd0Mb6kffKLNlEs6dndxrZK3PNrHfmDaRt1a5S15OIduK5ZChaLiE6ClniZlsxkl7D22A6FUKqmEu7VSx5LO8AB22jAJ//X69ctaeZzyqOmk3d19NY1HZXNrxzQwox1/fJw2z6ZWU1Sv/JRpGL+MPLx6xcwU8Zj82qN3ZD+timpmdU9Rf/DGG/Lq9IxENtZKigoLCndfkcSbb0kqyegVNQJhA52ET8LMYM0eGAxNAmkswzm2gkF9bBry2HOuEwC/No7OQCjpTEKQDjyz5fJr6ZCHYOnYOFt3m4ey7HXqgdBwDB2bhvTQ4ReQx5ZBnkboBNtIfniHLGAp2HL5rdYe0gfbTCA+mKaSDoE8nCP4tMdaCqS17aGupLFlBOk0wtsgbRSQY2hxTlmkIQ4atm7E2zzkb5a36AAKjdxx3iwqHnMLOu9aWOAKq75DQzz0mlDFnDNP0zx5MmNGjjt37mhDGVELGvdMFTyv16/qaNilo8ihPH78THUtKbduX9ERRRlfRVEZ7WgMDDNQ2sWI90LtQ51Jv+8LPysrO4c6marNXdTOLGbk577vs/JXf/drIg8+8LJEtAM1X/qHflBiP/rZqo+5MSAwciNsYYPR2MWeVWYFBILZJ0wwIKCsmHBhA6vHxf5vlAflg1bYCOmziyrxKJQJRbl0eVw6uzpkY3PNrOrylfG7r96QT7/9hvT2qSBqmmQqIp/4xG351KfuSv+AMjiSk57elEnz1ifv+kqK9tuZ+wQIGaNUTZQn96BjTKXOm9LrrBYyQpcGg5DBWwNa6ZRmEZx5wgT9E/ZgYIHiMPiEDSw4zFEXwFVsZTYFFbk4tSGoAixfe8I/NsaqLosxNZa0UUSjjARbFnGa3xRJ/GmUTewhwxUtl21yhY9bmxjUvxPahBY1BWYITAUPZrqtEmi4Fm12KnHuK2sdeLeBaty+CWatddwg8H1w6l0AswqfLmxgktKusEH/uNosgn/fzn3HRgHfXPAOsEBWz9qrhwYVFfMtmBTlq2XScc33C63eGlhfkXIIpQsGjY9qQZ+T43IftBG4nFFd0Pq40QEfxza1gwYVNXzgJ9hVtFMo0+n2mMrCjgt/DuDPufBRaU9d//6cAO/w6VwAOi58VBarXPAOhL8p3wEQNhcdw2AQ9kqiBYMPy/Vhg/bUHOTOEfSPK96hqC4GOZTUlaIycJ/TYtKfHrhB7eKlY/gjrvwsu4EjbNAeVz4q/eQC+KguXjrGeoWrNQtuQba6r/ilUVQWXVxsjoaGi0UKgKC58H9oz8eNdwxwLnjnSu5AOwNPuaJW8AVGHR4cy/raluxsH0ghTwINOOAFNubvy/r6po602nn+pc3NHY3bVgbQ+KLksjnNv23ic1mNq6BhgZlT0ywoywN9/9DcMmpuFQ1T1IVJBTCpWjV1mgEmqQsTGxou3BNQfnchPNA/9fuoqBKmMobA+7dykLgaYlwX7fCurhTxGNvs7IJ2UFRWlrfMJxS9KhZleWlLeHs+L9v+8IPHJv383Ioq756kVXGfPZ03jVpcXNY0UTk+TMvCwqpJVw3Y7w35P+YerY/S/drGgS/salO+q5v2H8cND2wWceF3w7u6C2Qqw7yeFjnjdbUGzEEtTMLtbMovV1QzgNlZihCRqalxGRjo1w7qlHTmZOpeXV2TS1eGZHx8QKIR3qjPhuYtuXnzknnUbXtr23zd7eAgI6NjvTI8MmR8AdPkKrrF1rSaZlXlwNrGQItJBS0XYHuli/uodtN42KB/XPEOn9sV7+qZpHmd1YsEiUk2EhO+dG+eIuOTDE0C+Q/lPipvtmcj/uLiks6e694WQJMlahrX0YEJyVMSKe1AGhv1FFGVPKLKe3xcVLMipsd6RbPV8wXomLOE7Tx8FurtStja6ZhmQHtcKaqrzQHwzoXveJaimtm04Jm7PKmZMN5bYHZtAuwzb1WGqzzmFiio6H1IqaMjJVkd3TCBeUgcLC6sy9QlXigcUZ90Rzq7UjqDHMk4j7FpGfNzyzI6OqY+7qEMD/eZWXRtbVMmJkaM4laCXTxWsPFN+Hrcxta65j+S3b0j+Y3p9+QgoyOs2WjvPT3zfZO35dbjp97TMxSqgWFkd2pK9i5dl97uDvMUDwxCwDDdmOWgZbeOYV6xOks8gVsqpKcuKACmK+lYhaQMhJVy7GNWdDRmJ+lZESXO+lfPnz83/IMWeaBDmaSFDjuK7Iqt9dHZYB8s1z42RuCcX/JQV9JTv9nZWVMv6on7YOtq20Meu6pueKt57ONcNo3lAXGUgeLbcqg/91D5+jx1pgzqQj1oC/m4Th3Iw3m7vKXdzKg8bUJ66FKG5S3l0h7SQPss3mJyVuMtskAcz79W4+2mWo6rhwfy1dmP5NnWqkRjOjlp+sPdPelWs7lR3nJO26FD2c2iPIfRUW/GJKS1s3iG1Lv3mNLO857hhKHdatfvbGX02NvC1tPboRVlFs1ILltQ5sSkq1vVqZCTrObji+T1fA58H3wFGEqDAcdeqN4w0tm0QcAIm8emsb4BjINWMC+/Xh4vjT0mBPMTLJPtcbAMm87G8ab8oN9tyyAAS8fmDcbZNPbYnlsaBJsHXzjod1eWUS2PPbdp7LFtH+lsPhtH//A0kC0jSCeY3h4Dfm06UCsPwdLhGDr24YnKPKBaHhuAzWNpILfBcgC/yIJ9csbWxQ6aYO54X/7ZV78o//z3f0v+6Ze/KP/gt35R3t1eU4X0nogK1r+ybgR7Dv0pnUBsuc2i/DE3jjxaBtlMVmbn5s3MypsaJifHJaYKyMg0NDDifepfTQCE8cqVcR0ZD2R1bVVi0YT09fbIxOSQjlpbsqEzLk/bDA726Cxb/cFxRnAaAZMMtC6lx9xUyXnMbVn9YM83UIbzmNtn/ob8td/7fSk+eN/L4n/N7fgHvl8SNb7mxgjMDOFioQKTihG21c5pFKd4FxLa4V1BLSD6MqJyhDyBdFRn6oq5wgLe2ZkwTDDpgITSwqQ1sln0XDgO/9uDb8m//PqXJaMRxKodJj9+95PyU3/5R0WNyabArAvvWpGH8hwVhBPJhNy6dUNu3b4ud+5c1xG1U9ZW102junuS8upr3pfbrl6bNMSHh3vNl99eeeWqKikPiOdldKxf013TuGsyMjpUVUkB5g9mRFX4eeyIVYLp8BoF1gDmCCaIC2DCufAdaQ/tChv0D/3UCoyvZ/w7HVh0NM3pIJr0vwpfDZiLLniHNYi5XAtL25uS07rjn1J7Hqyc295QS7H5tQfe9MBA1woaV21fJ0bHhlQJx8wxb2Aw9QeVOlO6daIhGF8DYc86Fij7KYUPCa5ouWoPaJVWXmepvPYxgh4veBYaq6kvE0qyXAeu5LQSZ1KtFLbOzpN9kcRT7yC/zbE55w9mi09CT+t1MosImIlhA9MDWi5gfe6wQXtcmPL0T0P3uqsgZtySomREzWf+IQu52rxhsccF7+BbM7xjRsSED3qMjQJ5aHWga2t4qE+Ua8FQHyzysHoXNugUhMAFWOBxIWy0xwXvoEE/NQMEmrCZ3Zfc++/K/pe+JJk/+rrI4bakE7WFHd65GLjhnR18zpbSs1PUA4tWrc7IbSlqdcB87PBgJ3Be3zZnWbymj3qOsEvwLoCfZRcrwgR+liveteLfcz80+ZWvSOHnf0m6fud/SOy//IrkfvO3JXq056c4DW6b1Lu/eV6wt31cIMRN+VbBVOnQO6N7flzwuCxYBeXXxgHO2WkSTHsCFg5qNsIWadDeqMbKJcEFELRWTKRmwWDgok30TyMDj5lF6V/9T4/m19al4w//lyQyO9JRYMW+KPE/+abEN2sPmMiDC96Vy4OVLWTT0m5P3oJoZ+A5Q1EDl6lvcIHIgOvNhiBOGIKJWNMsKOOVpd0aoOFqQcCF2QtoT6u+TzPw1iQa4F3Frp1M+li1lc0qXhn6R6KFfGWyMrjqoxPe2XDyA86Tr+3cPmuAGySxHOW3VUUJMuN04129Kd9ueHAB3jrnYpHHbhYJG/hzdnNAM2hF2F28ZhXgC9uNFa1KdqNgA0yrg3eFogaqqodF9jjmC+YJmbz+2s9TAKwS71ree/zNpGfgzJtAXs75PYkjY3VFxSxwYb5hurm4Pwe4we1ivyrtceEL0z+tmG/sWDvV5cY8rg3ouOAdfHPBO4A8nNN91HLWZbM588nEubkFefJ4Wvb3cLo1iyrb7u6BPNa4mZkFefp0xqTf2toxL+XmfGlpxfgYbOafmVk0n11kr285oOfRxKlvx4ZvFDCr3g3u8wSbA1wMPrSHdoUN+od+cgEWrVzwjj24diGu+Xm/ObC42KrfXaGo4ETjmUXZhH/92lU1efgGCA0iS1QW5l+YTffXr1/ReDZNH5mnbG7evCq3bl2Xeb3OiMim+GvXLsnU1ISsrm6Ycj3dLGeLK58EM+w8/Y56cOk7uoJLWhc4Qbl28B5eE6WaFClIZ1dCLl1iF1JEjg7tZgezjieHBwXp7uHNAkVJJvgeTVoKOb71wbdA2KAc05FKzV0tig3ybGLOZvxBwPQ1f7DXvSrgK9TciIBik9wE7GkiFVF2RpWbRySpp/T4wcEN7GHi4/im/LN5R//4/I/4fWP624f2nbcq7J/UgKuH7vHty+8Na91N/b1Ks7kh+Ogph4WTy00BH7XVCak8VxlxPdEKY1IvLC5KoZhWgaBBfq0jPPbmOcYe7ZxeOTFViuqQep9p9NJzzJffagEzBxOOe5zWBN7b2zWm1i4fn9JiSmaDXwwfsSJfpbeDGWi/go5pQ5kE/AMCZfJokjV5MLNsAME8WAWeZeDVhWugMo+9x0igTtDh/hxtsvfpbJk2D/XkmLrgJ5HHlmHNc5uHAOANx9TF+tqWhjVLLR9tHtJRJueWt7YMm4Y8ljb1oD723JrVpKGdNk8ln2j3zo6Wu7t3kufgUAf1A7NWYVAhArV4y7FtD2VZOpa3pOG8Xd4G+cZHz4jb3z954D/NinUAWBQeb5rjLce0tVXUUG+4iaKKLC/xTGhaTdwpicVPhhKULn0MYZ1tdbrt6PRWN+kOAo1Jpbjl4qXPmeX5coUKAvvdPrdnmYRQcJ4+zph9xZXgvUx0QBBQ8L4c5wkxjKQzKAtFh4HceKYjLeOoq6UFYDjHxFE+gXNTF78z7HVbV8qycRxDi88HQo/yATRtOYC6kZ4ybTs4Jo4AbHp7Dj3aQ5ylzWf+gpsrKMOmAaSz5VTy1qaxNK3yU5/KODYhLC0tlXhQydsSDw5P8hwdHZvzWj1fi7fwDiUDQTqWtzaPpdMqb+2nF4HhE3S0vpZPtvwStCFeO70BolHeUr+5ublSXZpFxdfcynF8lJZHD2dlcmrEzJ7eXs+U6bBoNG4eX+vt65TNjV158607svRiQ0fQPVXQDmGl+MbNSZmbX9bRICH5wrEqd1QuXZ7QkiHpDwY+EDbMN7tUTpKyr7n92s/Kyu6hTvLKDPs1t8/8mP+Y28nX3M56zI3RD+Zz6yRsIGzQCXtvMQ9A0zdhf2SYWQGhw4SrDe4O6IBO36lo5bT308qH5E//pERVcKPFmPd6k3hRoj/xbyR25bKfrxx8zY32hG3SM8AxSw4NDpnVGeOCI3sca/iZ//M1+dw73zBnBZ1oGNq/e+Ky/PIP/z1JNnmrJYSvuVHNgvmi+PUbk+p3qmLoDBqLRczKLTPZ6Oig+q+j6qd2yN1Xb2r6vExMDsv4xIj093fLlavameqjTE3yAHBSBof6vKduTNmnge/owifhvqaL+7WAQcfFpgcGgo/bPmn6yIV/D98s706mjXCAL9zqYly5olboEIrZP9ArA4N9Orr1GqXs6+tRBdVZUX3U3j4+Fd8jyRQjaFYrUdDrXSZPPEHROf3VMgZ7Nb6+0CLUNYUtWK9axw0CoW52Y3mrYCOCC2FjQSTsWRvQP2dtrDBdwh8/nOqiUxHVwWzqYuBGFsoHn0Dly44CqBp5NtjEcc6LSRxwKXiZuIj09OpsZNKpAJrRAeXjVwWFG9tleVC8SuW0aUwhJWCSYsefjWB5HNdW/mrAb7CLB2Ej6DeGCdpj/aEwQf/QT/Xh9X9BzV/e3NeCPBtwD/qUfxgCWOjB/z2B1ji4lqJiWiwX1TIJbwYOvuYWPugU64yfQhmjWu16D9CwixZhA3+u1Y5pBrSnJu/OEQ3xjiUEdqVFtd3ab3F1oQKvF6gcn2uCQcEF7xhIXQymgMG0zpJQXbw0iopZ7OJmOqaHC78R4NO5aBPmdasmVTOAxlmmvLnHqCHGxKSHef0TQVGblE8X7QH0j+2j1lSocbQjdy+NonIj3cUiD/6Iyw0PLvysl2nDQ0Fl3uwJz6tosUSqJnCUyCbh6k35+NwuHmgA5/em/D9FYH5wfypsYL658H2AS/PNhelL/5xlJvLSBpYqDlUe0VXEshBpXjjpIxe8g2+Wd80PJ80BeQjV9PX2GkAgEMyPPQdm+NQo7qPZODISx7GNs3nsuQec+pr+T3lSRbAMGxoDzHKx8AJYeHEx+LAYQrsqcYozzbOrDPSP3dVjijG7jby3yNPnx9m8/MaTe/LZX/6c/PCv/Dv5F3/wWzK9t8tFsnhokDb3bF0MPsiC3QBRQrCOXhPL0GATToEFMseLSX5VbSPMqQrkqQ7RP8E4A84r40h2Oq4qzLCnactW5hrM66PVUa1Z0CkuaNWkQ1QwtAloWEGzyql/+M+ZPN9YlZ/9378r72xtyGMdpH71o3fk81//quQKzSucK95Bo5wOKkHw5lf+VipJkciwp98K1FVUGsBo/eDBE9ncLH+f6/FxXu7fn5F33vlQll7otWJS0scF+eDeQ3nvnfuyxy6iQlS2Ng/lnf/3QN5//77smv2R1VvIPcea9wLPkSn4waXdTyGDXUkufFT8xqo+KvKHLvmHuIrGh2yRn/DO7n4yRaj0UK5dOJpL78nisfaxnrApLJ+IyodLM7KTCcz2DdJmU74rH9XyjraECfzu87mPGgBKij/Cfsv0cU4VM2CWaotmZxbMxoZPfOJVmZ9fkON0Rqan5+Xqtcvy6qt35PHj52r2FWR1dV1ee/2O3LxxXRYX+ewiPXW6t1pZuYSxzTIXZ97FJgTgaiWb9lRbpGAnnwmW5ZZhzTLNB/0TpEPTmCtN+aqYfJ/IHGv5bOWk/zOJiGSrzKheFWpXBCV1sfIL7+oNppU1bGeSZ8NIq/JQlxM0YnJyUrq7e7SfSUotvZryDOro6IASj5mRdneXB7+PzQ4mHo9LZ9iInJNCMa/X45JMJSWTyfrZqWx5hdk/fMpXaAjFU42vxwx8krNv2p8P2Ozt4h4d7Sm/ae/Bctl4BhroQUJt7tQH/WM3yqOIlFuapTUuqQfeG+U9OolI1JjI0QqKjZi0bBZxcb/bPunSCKh3NBZtqP7VwMMg5+6jIuw2eGt35czOZVVB/Af1+LQiH4bSZng9pkjEUzqi6knRG4EZiaN1Vv9oAAsiwZv3HBNnFLwalGGQyxfKF2xYwLF5UBRbLgymbHtulcjSIYBgHupFsGlsHpueeEC8TQN98iDYxNWiE6wLeaifTWNXpu05v4A8Ns7yydKxefg1eY6UjjIIH3EvfSgvtjdk9XBPlNKpckt59Jx6UB+bplqbiyoOxOfV0uK8oLKQUc1FhrPazVkVhQILafCcXysYFajFW9smUI23ti7t8tbGgTy8DeQxcf6vBa8fUqXQNF4ZQTq2P2yZ/ALoEThvVclrKiqwilooKYJWkh5Spe3QWTIHj/ScCqRSnd5Hc0w9vDyppPaY33m5XGAkKdWVOC+eBjBaMwtZxm1ubpjzvW0+gHyykGFhmB40yRVU4UhnzY0Nb9ZktqEMZmzyY04xghJnZyFGb84JgFHWntNRBHvONWDPyQsoy8YhPFYAWSW1I3YlnWAeOhIe2DT2Gy/2uqVDm22c5RPlYCnY2c7ycWVdXQ3tuqfbm/KTf/g78k++/Ovyj3/31+WLH92Tpc1t2dncMuly2h87Pl3oUA/qY+lYPsFL2kTd6EKeO91c35DtdeWtCnAkHvPEw0dEeQ0ftjRfSUBLfe+hFm+hb/lWjbeVeVrlLQMCAVjebm5slZSMRzgtvEnLS8d2QHts6dj+qKwL9JC/dkzfuo+5WTz6aFb6+jtkcmpYGRsxn/8/OGBZOy3j46Py4Ycfyfd8z58xPiql8fQMr2L51KfekCdPptWJHtb4vArQrvnYlDc5o3SQ5uTEnCg1RE+Dj7n9pS/8nCzvHpg4rsUkI5/7zN+WH/rq16Tw4bc1FUJy9mNup+iECFe0atIpqjWQi8gv3ftj+Zk/+qrsazr+jaSL8vm/9ffl7clLyp2oYPhENS1mXT0E6Zgj84f+0HzK6y9PP5Z/+JVf1XQxLVcHKg23uwfkl777h+TK5/6DRFXoeczN+LXqFsZ+4l9L7MoVCjkF57zTf+YIcnrAMYfBx9x0LjeP6P3FS1flv/71vyvJM/hViXba1BClEfVFe3p44iRqRuv9/T25cmVKeFJmW0fr7/quT5p0N29ekWQyapT49ddfNXFXr17Sc++Jf47LQYW9SjMy2hGpGkwjvXaWwBe1ihoqG16PEYye9l5g2GAkteZQmGDmsbNCJQqxovzf+cey478WBc6spwryrZnHpdnP+JveYV3QP3YGqwbYHizHLga18uUzZm9r1oYJa42ACvEyqIxDtnijZvXU9RH6pvzh4X7p7fMeDePVj2Pj3tfcJqfG5fqNq97bHeghDVeuXJJr1y7rNM+Xodl2ljLnKHYqpcNosCcDQAhaE+rTBdqRqxqsv+MCCECrHdMMaE8toWahRz07I1cxPUE58/Go7OfS5Z3fgCTQP2cNptUEuwWZNgNPpX8YBjCLCTURkCXawiaPehNBPSAP9WSzHhpSVE8XIBBRM3ZQeMuDdhuRp0HaqkHzG1PUhnIw+jbLAFt0M2iVya3AdGyLHdMMarbJj+Yzh8GOjsN++K2/qALZUehGUJ9/p69VS0+cF1u7LKP0DngXpFGtNpX1r9v8M9DO7aaWc9auMA0PKmRlCOKkEJdvyg/7lSUWbMJ2cdOe9lTdWK7sxkOHyznt6Qwn2j3M8vhbgL9mDG1AJ9gYwE17F+AhaxcPw7PRxtUGGEeb8is1sx5B0lYGSFmxqQyeWVXTTAwKkXGsNJhfH8HjM4A5BS0XsKuNYYP2VDUTlS0oIN8ixezl40wR3xKK0h96jTudRln9fqgH+qfcxK7sL87PaG+D7KBNLtwG+FbOO2ietIO/lbUwg1qD7QgCOq3KQ5OKGuzMWh1r0zUSTlB3MaksKQ2tLKcsQV3g+zR6g7tdsCTvYkGk5mJSiS2ooa+K+idw5v01UlBKXBM1F5POznqCBtOyaOl6MamEYB05rqhzM80N4mPxhgcX28WA8Y/acTSaQCt+dytw1R7gkpZrtDbXucFLo6j4jjVfbnaO+Di+3Iz2vCwvNzsv4De64B18c8E7wFpCqxPSS6OobIxu1dFuBtBwIQDA1atY4J2LNsE7F08DAQYFF1YWfWTbFHZPsVjaqjyEzgk2F9y/f18ePXpU86Y8wPepd/28gD9S76b9eYKtZC78LNpzys8KAfiorh5owL+ve3/znADvXG2AYVN+1UW/BhCqouayeVmYX5VrV2/K8NCYvFhc9x0B/vira/45q3y8HcJEEJfnzQEaNO5AB6F4PiqxfFwKEe8bN/lIUuJskRM2URxLsRAzq3G8kZ9yUY8iC5yUZWhQNhu62TPMeeNgoc6vmVeUf0C8OeSiH8x1A9umk5iw4K1c0li/AoZkUbLKgKzGRbXdbMSPsOGhGJfDeM7cQ00rXyMbK3L8B78nG1/+khx+dE+ymWNJmwZnNa8KVUCugiuk3i2dqOR0hsiy6ykbkY5cQqlEJRulh2ISLTJ7ZDWd8l3T8OZ8rmRitq4wrTpYdAmNdz5/CEXlCfJQNA0iPmraxWJbRs+j5i0WfCFdLZdcVDKqMZkYXwEgbTNgZZ72QoTf5goIVVH5virmS3d3h3R1d+mIXG1l0qs0u5b4CpxpAHExbiUgXMogkqnEZOJZiRU489MVVR1VGCMwUwXBdCybSDWgqAXKgy+mA0DRmDmpJu9tBjcDwF7EjPL9qpvrBCOXAfDJSjfmW0rb5bfJVMqDOhMS1y5GeQpRPsmgHa5CmMonVMGKElt5ITv/6Rck9mtfkP4v/XfJ//wvSvG9b2tDVPEiOjCiSNETTU0k4urPeesIps36y2NtvCeJLjlMep/7TxhBVz4ZmhxrLQrsw9agwt6hoaAZitHa1gamb2iukNEy2uV9DYJ2eT17GuyBZqDJxZA/TV/IS2fOPCfWJCK+6eufNolQpcibIT14AlurlhHp7x9UIeBJ+5M0bOC2e2riqoRxZRgb72Pa6Z3axwmVlsN4pxxH+41AIIxFfDWl26PqFEXg4L/pA8qNSWdHh/T2NrkgovmZNCJKM6LWGBOCTkqepAKKtsFCtXZocFgScc//CRN9vIWw0+dd2Wihc6meRjQurtMGr/LkhWMoCoPb/oePpWNuTVIqeLFoUpI7R7L24UO9pg0zyqaJbXHKg45Up9LqN8cWZiLStCSNaZneEKqzuPYB5wmtQDYS13rE9DcheVU+7UktXlPWcgu0TL4Fk2TwCdA6N5gyaVhEenkLYXe3HgX55l2lLQwutIrHQ7AeYiqTtCPd9AAclbHRUYmqnLaChp6eaRVHh3zBalleeeWazqYZmZmZl9deuw1VvWrJKiO0Q1dXNmV370AHcqQfBYNB3v2+rCb9g/lH6rNkjRzy/GtBD/7s8IRcWVFzemdNBaFT06uZpWUVJy9J/tZVSfDguv81OeiZCbegQpPPSDKlAqMRBAYRe3+r2nEhoWH3UA6X1lWomal0ptCyjnu7pH9ixOydNRvbaZKSo1N5Dpf68t0entvlsT/Ka5RmI8csTBAy6bzOPjoD6ejhDY6+MGiaZDQu31x4JsuH+xLnuWFNX1TleWVkWF4/VAP1xbwca/2L+Zi2KyPZvgFJ3b2jXaBtjCkdf7DlWeKcKjRKmEzG1DNRmjpQZrUuZuaNR2R5Z1f+eHXe8CGpDMLo7tSyv3dwUjqePZJCPqk9m1ZexXVgiMrRG69LIuW92aOybfmcms6qKXxW5WTAh8Ee4KFdmLH8bJy3OgSZPiEv+Qpqzekxl0w51NwImjxZXZaHO5tGVbNKL56LyEBfl/y5sStat8ZpxtS646Nrd+/e9L+KSFsaV9pQFTWfK8jTp7MyNTUux+m07O7syS1VoHJFhUERmZ9fMitw5husOn0Zk8kkU6aq3uaUkXzIzWuiGsIwVq+bWVMjlVUaPOGhA9kyl1Cmqr54CelTLWtne1/SmbSMjVdshYOW1++njhFPw1Itt6BlKUXTqSlNZF44zSXyKDg3o7Np0wsZHRv2P0npJwiiDs1mjldXtszsMzCEpWAvqDeohwl4oWfwEOGjfkawND6qv7zRni+uRdUhyyby0qHtyurgFldeUZJpmCkuov13IIdHRzKhgxNfNoupMqe1vKQmwXczyqnlktxk0Xj4X9RBKq7mSLHQocVQG7WUlE5GhTdJ/wGI+e3heGF+WYaGB9V98G+d6DXqrcV7CKavhoryyo7NiTmQjY0tIy+DgwOmbO02cxVeGdUwBDF/ecQtatZKjlX2UkwIXAriDJrT07NmooonjFBq8IWnAYSqqNSFDwrPzs4Zf+PGjWtq3qrQlimq/mpvLiwuqQnCR6f6lQFe55nFDx2R6PFjzZNShiFUBWUW0TEzamGYaMPJok4+6Sk+pwIYZ9ozvLCMEdnc8B5+npwKfnbRu+ahjLsKPce08w9tNGzL+0JM6fZSntGZztU2TU/PyOTkuHR2WZ+YVOePpSU1X9VPHRpWs9QwAjrUSquRV4HC39fKIYRqc+iVjP6lTTobaq0Z+Fj8YWbkRWXHqqgJlUKO+RiYKU7bw8d7+cgvHwkroGnaDwXlN37qkabr9NOZa1pqVGdpMuPfRYsZ9VNV6fQag3BO+ZekYEyRSmjUzMyCjIwO+49XUh4B+H3RDuhP6qpYWV4zs97oKAM3fepRMCIKDA+YOdU6099YVt0J9WaYYW0ZDUFpPnz4TG7fvtaSop5Dq+tAG8IX395481XzgrPS43DmD6QJWmk9xZwyJoEeI0oEtJGUyL264ZpaR2D926GXkhqH6WEWHGg3uqDnZgDUYlhEMbaTuQhMSeYrcwnePHEKMM4yjwBML9msHvxjRmFoEKzQ8xvXf7ZNtNd7GNvWw5ZNsIUSgvHNh4R2vPf1PMry6fuIqOmow5rWF+5pnbRNCWVWXP+qAao5aAF81VyaBp53aKxm84pX/9KUqe3FfEuaRxUpUfNp28xH5DVdJ3k50HPK47opRIlCR41gnwWmNtp/0NJz86ci6LWkMYkpHBBf3q5y2Mo2GGyxCvh2wjtqjkVwOm1EXQjDH2WUV4tAmkaCltPZBR/11PwhvnGEO6M2AZb9EX5GNw92BK1Ecw2shOc7qA9SohME14gnYKIBusXvrSZBm6Dj+VK12sO11sq3CPpDZ8N2d/M0oYO41F6NPatsrhNsPS2/T6Ocdxb1RLU1HpZ4ZwYaLd9YcxyfVcfm+zOXU7tFeVfepsbw0ijqaVhGaKOCzkDgkKq30uhyJvudYLjAPVpPCPnWqxfpKWqQTR5Nzglq2uXUBzM7g2y51Tv2pAjmlAD0BIFpTNHawEkTDM1zRUNl+/6oz2OPX+ff5tblgkb4ilpyd6r1aVB+KgHd82aulvjyKqp3H3Z9bcNb7dVaYpIkUt5zfSjGeSnqzvaeKY/7vYfmzX1F6eruNLt92EfQ0+u/oNmnV6aoOog8ejwtd+7c0lGZShJfXfhoA0rNu45z2jbTJvWlk0lu4ahfmIjLyMiwl/hccKIIW1s72s4drTvnBfX/RrS9Jy/tXl5eMesDje97pZ1AeeEf0k/LKys6G+bMC7QprwTS+I4fi4ccsfJq8jcKnw4LQDwxxMA2MTHu8S9QTHuKqj601m9jfdvsa+7spGxvhXhrc1fdGfaKn7Xm0Art+qguUS8FWDKPyeDQgHbGhOzvH6pwDZm3z1vTq7XOAH6P++DWkfclgIgsLqzK3NyKJomYhaejo5N7fZWmGF8tI2xv7ov3okau1aoTSoPZyP20MR1sRuXg4EgmxidkoH9IspmceWmcqZoGhM2amucBFDGi/ubExCUNl6WLh/R9WoSuzh7Tvnbozc4uSSrZKVevXJWF+SXZ290/oQGMZaR8VYFfmF/0z5vDlvLo2bMZ5d+4ue9+//4jHfy8gZe6t66kFhHle9GsOj948LgUxy67Rw+fm0H9pJ9rhfPHS6yoMLygnZFQZx/fNaJCrrOOznyrKxuytopiFcy92f29I0lzn/b5gjx58kyZ/EJH7UYETpuvyXp1xuReJB3Ei9mY9VASXiDepSMqM/vc7At5+nRafxfN9fW1HT1/bpSae7MnqNVRtAe/qyiJpNcWc4tE28WojX4c6Ww+PT0nD1UgcrmsLCwsaR3SOgjk5fGj51pG0BJoFJpHy8YaSaU6VJEiGqLKr6wRPL5owMvTV5Sn7K1tTsjLeey9VpZ2ity4cVXbmZRtncWfKJ8eP55RGptm1fjFiyVVVm/1vVnAF2ZQ+Dc2NiTXrl0xZT56OG04v7G+qX2yoPKxof0zY1beHz16qrM8ualveZ1PQwdflQMGAayp/X2to2bZUgWNxRLaXyoPmbzMzixq+c9k9vkLM8jOzizJs6ez8vTJc3n+fNZYTCc4i+bZeIkVFbZbXwaBVifcrAIWVakKGmh8QQ4PeM9rRBVny8wKV69c0TheoGwy1gDl+E3XQ1Yz81rG3v6RCnNckomECrJSUu2JqznK/UN27lzTmSKb8d6y+NGDaZlUs2t0tF/rpfUs+TL1lAmaJ3RLbVLTys7W3PpAQHa2d+VQhSSrIzn12NvxlKA5BOgVY/J8ela+/c49efjoiYni+0GXL/MlhC7Z3/Vebt04ynlImJoaM29e5PWxPGDRkUoq/5KmTZcvT8nSizXlb1J5Nib9/X3m6wlNQWlwCwqrilsdT57MmLpjlu7tepZPOs1LtLNGRgq5uFyamlJ+at/uNvrAhzcjM1DfuXNbBxc+wyJqaS2Yxxa5tr2zp79RHSSmTL/tqHwwmDMQIn9Hh7wELvhAwcdaUatBG2yEgl9vpkCIC4Wc+pYZNb0W5YMPHnr3+3SWbRRmIaiovuPylvcOnb5unc2WNS5mRu/NzW0te0Hee/9D83pURlQ6qKenQ7q6UloHOkW1y/fBqiMg2CVlJr3NU1Sh45ncpM6wSe9VqBrL7RMvH2d24GoeyiUjeG+//Zb5NhB3T7kdxoYCz5WoV/fGwD7gu3dvyxtvvK6m9obyaldnloI8eTwrS0vLKrwMqkpXZ6W4zk4eT5oDG00mJkblk2+9Zt7hxAfMvCeUggOktkWL7uiIG35Sr+YGIZBXWUiqwufUgjvQMjqM5cPNm/29Y6XdY7aHdqrPyuddzAvnUylzW4nB/jz4GcR3jKJa/4PVuJjORIfq32UyzKw5M8p1q8JMTo7Ipz/9przyyi3pH6j3orRgsxGciDI4ah5LGxkZlOHhPlldXVMF9jZW9PX1yqXLE/L2pz+pZd/UDuwxwr2/z6tJDpR+qagmgKqo8Jg8nm9ohImFC5VGFJT7o4eHatZnspLN6WDQVt9r+QXf3zaDncaYjzdRKHXx/OESn1sArsDu7qHhBw8kYA0sLi6ZTR9sKMBtAZj75oNSLdBhIQ73AL90cIAZTpRPSeOOpNV9OTzMaLvsKr1XPi9/D+47Pxuaz0wGfO2ty5iybNZBFnL5rNmYc6B9X1BZPDg4NufIoMdYclfSal/NvmMUldHTbmgenxjSjk7LRx89VgbxJTORsfEROVJz494HH8jG1qZJd3I7oB68TkEZR8cGzNMUzKJsMexThQTDIwPqJxbkvXvvy+bWtvGP3njjjvokz3WmWDErnLaTSsv6p1Aeb4XZZmM09rYa5jU+ZWb5ca3DysqKmqzTGscM1CKURrcKnPeUCEJUMG2w7cM66e3r0XY3aYpWADOaXWh8YhNFgadXrkyqdTIvL5ZeKL1e7UMd+PpTsrvHZyNqvyO4FsYnRswi44f3P5Knz6aNST0w0K2D67CRBxZ9urv7DD+7e72dUPCZmfVs+J2hv/ZTjANDfWaQ4RW5bPZIdcRUHrpN/917/4H+FvW838ys7OumCPovqvw9T7zk91ERbv0NCr8yxqsyRgjX+JQFG+NIg6/IdZNSmciMcZaA+06/lmNo6WCAz+vdOvCDGY0pB8VXOtwULyL03rmpD3WIJA1tb3StAooD1p8t3avjmF/+ULa3sY9jY/qWrrfR+SXa1JkTpa30zXOY0CmwKc7zlVuGoaF/alVT+So82sajiIbXZGjGnK/gGzC0tByzgsxvIK7UV/SRyktpu2KtCgJowBvvzNTRlmloaHk8RlVIeddIax569N0HU7StXz06zSHQ4pcNtpG1Gutzj//MtAixn9QcmuNGhAAWkF9/fEXwZJXyAXF+OSUalm3eOYrJzN44KMQUVAVe2QxDkTpfv2sd0IVGkL7X/raUtBEYkrZNnATr0Aj89DZrKbvfV8H40nXzx3ZtA6iSsCyKE3/wLAWPfx4Rwvnjpd7wcIELXMBDyEPoBS5wgfPAhaJe4ALfAbhQ1Atc4KWHyP8HA382VJ0haD0AAAAASUVORK5CYII=;" parent="1" vertex="1">
          <mxGeometry x="127.76999999999998" y="-467" width="234" height="118" as="geometry" />
        </mxCell>
        <mxCell id="s5D7mW5d1kZrzYi8rgM7-139" value="&lt;b&gt;Categories&lt;/b&gt;" style="text;html=1;align=center;verticalAlign=middle;resizable=0;points=[];autosize=1;strokeColor=none;fillColor=none;" parent="1" vertex="1">
          <mxGeometry x="735" y="-260" width="90" height="30" as="geometry" />
        </mxCell>
        <mxCell id="PfziWdklDKrqUwGYDasl-1" value="" style="swimlane;startSize=0;" parent="1" vertex="1">
          <mxGeometry x="1250" y="-768" width="360" height="720" as="geometry" />
        </mxCell>
        <mxCell id="PfziWdklDKrqUwGYDasl-3" value="&lt;b&gt;&lt;font style=&quot;font-size: 13px;&quot;&gt;Running Budgets&lt;/font&gt;&lt;/b&gt;" style="rounded=1;whiteSpace=wrap;html=1;" parent="PfziWdklDKrqUwGYDasl-1" vertex="1">
          <mxGeometry x="5" y="50" width="155" height="30" as="geometry" />
        </mxCell>
        <mxCell id="PfziWdklDKrqUwGYDasl-6" value="&lt;b&gt;Upcoming Budgets&lt;/b&gt;" style="rounded=1;whiteSpace=wrap;html=1;" parent="PfziWdklDKrqUwGYDasl-1" vertex="1">
          <mxGeometry x="5" y="160" width="155" height="30" as="geometry" />
        </mxCell>
        <mxCell id="PfziWdklDKrqUwGYDasl-5" value="&lt;b&gt;&lt;font style=&quot;font-size: 13px;&quot;&gt;Finished Bugets&lt;/font&gt;&lt;/b&gt;" style="rounded=1;whiteSpace=wrap;html=1;" parent="PfziWdklDKrqUwGYDasl-1" vertex="1">
          <mxGeometry x="5" y="100" width="155" height="30" as="geometry" />
        </mxCell>
        <mxCell id="PfziWdklDKrqUwGYDasl-7" value="" style="shape=image;html=1;verticalAlign=top;verticalLabelPosition=bottom;labelBackgroundColor=#ffffff;imageAspect=0;aspect=fixed;image=https://cdn4.iconfinder.com/data/icons/evil-icons-user-interface/64/arrow_right2-128.png;direction=south;" parent="PfziWdklDKrqUwGYDasl-1" vertex="1">
          <mxGeometry x="100" y="10" width="30" height="30" as="geometry" />
        </mxCell>
        <mxCell id="PfziWdklDKrqUwGYDasl-8" value="" style="shape=image;html=1;verticalAlign=top;verticalLabelPosition=bottom;labelBackgroundColor=#ffffff;imageAspect=0;aspect=fixed;image=https://cdn4.iconfinder.com/data/icons/evil-icons-user-interface/64/arrow_right2-128.png;direction=south;" parent="PfziWdklDKrqUwGYDasl-1" vertex="1">
          <mxGeometry x="160" y="50" width="30" height="30" as="geometry" />
        </mxCell>
        <mxCell id="PfziWdklDKrqUwGYDasl-9" value="&lt;b&gt;Monthly&lt;/b&gt;" style="rounded=1;whiteSpace=wrap;html=1;" parent="PfziWdklDKrqUwGYDasl-1" vertex="1">
          <mxGeometry x="20" y="235" width="100" height="30" as="geometry" />
        </mxCell>
        <mxCell id="PfziWdklDKrqUwGYDasl-11" value="&lt;b&gt;Annually&lt;/b&gt;" style="rounded=1;whiteSpace=wrap;html=1;" parent="PfziWdklDKrqUwGYDasl-1" vertex="1">
          <mxGeometry x="200" y="235" width="80" height="30" as="geometry" />
        </mxCell>
        <mxCell id="PfziWdklDKrqUwGYDasl-12" value="" style="shape=image;html=1;verticalAlign=top;verticalLabelPosition=bottom;labelBackgroundColor=#ffffff;imageAspect=0;aspect=fixed;image=https://cdn4.iconfinder.com/data/icons/evil-icons-user-interface/64/arrow_right2-128.png;direction=south;" parent="PfziWdklDKrqUwGYDasl-1" vertex="1">
          <mxGeometry x="120" y="235" width="30" height="30" as="geometry" />
        </mxCell>
        <mxCell id="PfziWdklDKrqUwGYDasl-14" value="" style="rounded=1;whiteSpace=wrap;html=1;fillColor=#cdeb8b;strokeColor=#36393d;" parent="PfziWdklDKrqUwGYDasl-1" vertex="1">
          <mxGeometry x="5" y="288" width="240" height="155" as="geometry" />
        </mxCell>
        <mxCell id="PfziWdklDKrqUwGYDasl-17" value="&lt;font&gt;&amp;nbsp;Category: Entertainment&amp;nbsp; &amp;nbsp; &amp;nbsp; &amp;nbsp;Ksh:1000&lt;/font&gt;&lt;div&gt;&lt;font&gt;&lt;br&gt;&lt;/font&gt;&lt;/div&gt;&lt;div&gt;&lt;font&gt;&amp;nbsp; &amp;nbsp; &amp;nbsp; &amp;nbsp; &amp;nbsp; 01.10.2024&amp;nbsp; &amp;nbsp; &amp;nbsp; &amp;nbsp;-&amp;nbsp; &amp;nbsp; 31.10.2024&lt;/font&gt;&lt;/div&gt;&lt;div&gt;&lt;span style=&quot;background-color: initial;&quot;&gt;&lt;font&gt;&lt;br&gt;&lt;/font&gt;&lt;/span&gt;&lt;/div&gt;&lt;div&gt;&lt;font&gt;&lt;span style=&quot;background-color: initial;&quot;&gt;Spent&amp;nbsp; &amp;nbsp; &amp;nbsp; &amp;nbsp; &amp;nbsp; &amp;nbsp; &amp;nbsp; &amp;nbsp; &amp;nbsp; &amp;nbsp; &amp;nbsp; &amp;nbsp; &amp;nbsp; &amp;nbsp; &amp;nbsp; &amp;nbsp; &amp;nbsp;Left&amp;nbsp;&lt;/span&gt;&lt;br&gt;&lt;/font&gt;&lt;/div&gt;&lt;div&gt;&lt;b&gt;&lt;br&gt;&lt;/b&gt;&lt;/div&gt;" style="text;html=1;align=center;verticalAlign=middle;resizable=0;points=[];autosize=1;strokeColor=#23445d;fillColor=#bac8d3;fontColor=#000000;" parent="PfziWdklDKrqUwGYDasl-1" vertex="1">
          <mxGeometry x="10" y="300" width="230" height="100" as="geometry" />
        </mxCell>
        <mxCell id="PfziWdklDKrqUwGYDasl-18" value="Ksh:324" style="text;html=1;align=center;verticalAlign=middle;resizable=0;points=[];autosize=1;strokeColor=#10739e;fillColor=#b1ddf0;fontSize=13;fontStyle=1" parent="PfziWdklDKrqUwGYDasl-1" vertex="1">
          <mxGeometry x="20" y="400" width="70" height="30" as="geometry" />
        </mxCell>
        <mxCell id="PfziWdklDKrqUwGYDasl-19" value="Ksh: 676" style="text;html=1;align=center;verticalAlign=middle;resizable=0;points=[];autosize=1;strokeColor=#10739e;fillColor=#b1ddf0;fontSize=13;fontStyle=1" parent="PfziWdklDKrqUwGYDasl-1" vertex="1">
          <mxGeometry x="170" y="400" width="70" height="30" as="geometry" />
        </mxCell>
        <mxCell id="PfziWdklDKrqUwGYDasl-2" value="3. Budgets" style="text;html=1;align=center;verticalAlign=middle;resizable=0;points=[];autosize=1;strokeColor=none;fillColor=none;" parent="1" vertex="1">
          <mxGeometry x="1270" y="-820" width="80" height="30" as="geometry" />
        </mxCell>
        <mxCell id="PfziWdklDKrqUwGYDasl-4" value="&lt;b&gt;&lt;font style=&quot;font-size: 15px;&quot;&gt;Budgets&lt;/font&gt;&lt;/b&gt;" style="text;html=1;align=center;verticalAlign=middle;resizable=0;points=[];autosize=1;strokeColor=none;fillColor=none;" parent="1" vertex="1">
          <mxGeometry x="1280" y="-760" width="80" height="30" as="geometry" />
        </mxCell>
        <mxCell id="PfziWdklDKrqUwGYDasl-21" value="" style="swimlane;startSize=0;" parent="1" vertex="1">
          <mxGeometry x="1710" y="-778" width="370" height="710" as="geometry" />
        </mxCell>
        <mxCell id="PfziWdklDKrqUwGYDasl-24" value="Dark mode" style="rounded=1;whiteSpace=wrap;html=1;" parent="PfziWdklDKrqUwGYDasl-21" vertex="1">
          <mxGeometry x="10" y="160" width="300" height="40" as="geometry" />
        </mxCell>
        <mxCell id="PfziWdklDKrqUwGYDasl-26" value="Rate the App" style="rounded=1;whiteSpace=wrap;html=1;" parent="PfziWdklDKrqUwGYDasl-21" vertex="1">
          <mxGeometry x="10" y="400" width="300" height="40" as="geometry" />
        </mxCell>
        <mxCell id="PfziWdklDKrqUwGYDasl-25" value="Daily Reminders" style="rounded=1;whiteSpace=wrap;html=1;" parent="PfziWdklDKrqUwGYDasl-21" vertex="1">
          <mxGeometry x="10" y="240" width="300" height="40" as="geometry" />
        </mxCell>
        <mxCell id="PfziWdklDKrqUwGYDasl-28" value="Privacy Policy" style="rounded=1;whiteSpace=wrap;html=1;" parent="PfziWdklDKrqUwGYDasl-21" vertex="1">
          <mxGeometry x="10" y="490" width="300" height="40" as="geometry" />
        </mxCell>
        <mxCell id="PfziWdklDKrqUwGYDasl-27" value="Share App with Friends" style="rounded=1;whiteSpace=wrap;html=1;" parent="PfziWdklDKrqUwGYDasl-21" vertex="1">
          <mxGeometry x="10" y="320" width="300" height="35" as="geometry" />
        </mxCell>
        <mxCell id="PfziWdklDKrqUwGYDasl-29" value="Biometric Authentication" style="rounded=1;whiteSpace=wrap;html=1;" parent="PfziWdklDKrqUwGYDasl-21" vertex="1">
          <mxGeometry x="10" y="80" width="300" height="40" as="geometry" />
        </mxCell>
        <mxCell id="PfziWdklDKrqUwGYDasl-22" value="4. More" style="text;html=1;align=center;verticalAlign=middle;resizable=0;points=[];autosize=1;strokeColor=none;fillColor=none;" parent="1" vertex="1">
          <mxGeometry x="1740" y="-820" width="60" height="30" as="geometry" />
        </mxCell>
        <mxCell id="PfziWdklDKrqUwGYDasl-23" value="&lt;b style=&quot;font-size: 17px;&quot;&gt;General Settings&lt;/b&gt;" style="text;html=1;align=center;verticalAlign=middle;resizable=0;points=[];autosize=1;strokeColor=none;fillColor=none;fontSize=17;" parent="1" vertex="1">
          <mxGeometry x="1710" y="-750" width="160" height="30" as="geometry" />
        </mxCell>
        <mxCell id="4_WIaCga24SRB5aGWBMN-1" value="Welcome Mercy" style="text;html=1;align=center;verticalAlign=middle;resizable=0;points=[];autosize=1;strokeColor=none;fillColor=none;" vertex="1" parent="1">
          <mxGeometry x="60" y="-763" width="110" height="30" as="geometry" />
        </mxCell>
        <mxCell id="4_WIaCga24SRB5aGWBMN-2" value="" style="swimlane;startSize=0;" vertex="1" parent="1">
          <mxGeometry x="2180" y="-778" width="400" height="710" as="geometry" />
        </mxCell>
        <mxCell id="4_WIaCga24SRB5aGWBMN-3" value="" style="rounded=1;whiteSpace=wrap;html=1;fillColor=#f5f5f5;fontColor=#333333;strokeColor=#666666;" vertex="1" parent="4_WIaCga24SRB5aGWBMN-2">
          <mxGeometry x="20" y="15" width="250" height="60" as="geometry" />
        </mxCell>
        <mxCell id="4_WIaCga24SRB5aGWBMN-6" value="&lt;font style=&quot;font-size: 17px;&quot;&gt;See Your financial Report&lt;/font&gt;" style="text;html=1;align=center;verticalAlign=middle;whiteSpace=wrap;rounded=0;fillColor=#e1d5e7;strokeColor=#9673a6;" vertex="1" parent="4_WIaCga24SRB5aGWBMN-2">
          <mxGeometry x="30" y="30" width="210" height="30" as="geometry" />
        </mxCell>
        <mxCell id="4_WIaCga24SRB5aGWBMN-7" value="Expenses" style="text;html=1;align=center;verticalAlign=middle;whiteSpace=wrap;rounded=0;" vertex="1" parent="4_WIaCga24SRB5aGWBMN-2">
          <mxGeometry x="30" y="90" width="60" height="30" as="geometry" />
        </mxCell>
        <mxCell id="4_WIaCga24SRB5aGWBMN-28" value="" style="rounded=1;whiteSpace=wrap;html=1;" vertex="1" parent="4_WIaCga24SRB5aGWBMN-2">
          <mxGeometry x="80" y="120" width="120" height="40" as="geometry" />
        </mxCell>
        <mxCell id="4_WIaCga24SRB5aGWBMN-27" value="" style="rounded=1;whiteSpace=wrap;html=1;" vertex="1" parent="4_WIaCga24SRB5aGWBMN-2">
          <mxGeometry x="80" y="345" width="120" height="35" as="geometry" />
        </mxCell>
        <mxCell id="4_WIaCga24SRB5aGWBMN-26" value="" style="rounded=1;whiteSpace=wrap;html=1;" vertex="1" parent="4_WIaCga24SRB5aGWBMN-2">
          <mxGeometry x="80" y="270" width="120" height="40" as="geometry" />
        </mxCell>
        <mxCell id="4_WIaCga24SRB5aGWBMN-25" value="&lt;b&gt;&lt;font style=&quot;font-size: 14px;&quot;&gt;Side Gigs&lt;/font&gt;&lt;/b&gt;" style="rounded=1;whiteSpace=wrap;html=1;" vertex="1" parent="4_WIaCga24SRB5aGWBMN-2">
          <mxGeometry x="20" y="540" width="190" height="40" as="geometry" />
        </mxCell>
        <mxCell id="4_WIaCga24SRB5aGWBMN-24" value="" style="rounded=1;whiteSpace=wrap;html=1;" vertex="1" parent="4_WIaCga24SRB5aGWBMN-2">
          <mxGeometry x="80" y="190" width="120" height="40" as="geometry" />
        </mxCell>
        <mxCell id="4_WIaCga24SRB5aGWBMN-34" value="Shopping" style="text;html=1;align=center;verticalAlign=middle;whiteSpace=wrap;rounded=0;" vertex="1" parent="4_WIaCga24SRB5aGWBMN-2">
          <mxGeometry x="90" y="125" width="110" height="30" as="geometry" />
        </mxCell>
        <mxCell id="4_WIaCga24SRB5aGWBMN-33" value="Subscription" style="text;html=1;align=center;verticalAlign=middle;whiteSpace=wrap;rounded=0;" vertex="1" parent="4_WIaCga24SRB5aGWBMN-2">
          <mxGeometry x="90" y="195" width="100" height="30" as="geometry" />
        </mxCell>
        <mxCell id="4_WIaCga24SRB5aGWBMN-32" value="Food" style="text;html=1;align=center;verticalAlign=middle;whiteSpace=wrap;rounded=0;" vertex="1" parent="4_WIaCga24SRB5aGWBMN-2">
          <mxGeometry x="80" y="275" width="110" height="30" as="geometry" />
        </mxCell>
        <mxCell id="4_WIaCga24SRB5aGWBMN-31" value="Transport" style="text;html=1;align=center;verticalAlign=middle;whiteSpace=wrap;rounded=0;" vertex="1" parent="4_WIaCga24SRB5aGWBMN-2">
          <mxGeometry x="90" y="350" width="100" height="30" as="geometry" />
        </mxCell>
        <mxCell id="4_WIaCga24SRB5aGWBMN-35" value="Text" style="text;html=1;align=center;verticalAlign=middle;whiteSpace=wrap;rounded=0;" vertex="1" parent="4_WIaCga24SRB5aGWBMN-2">
          <mxGeometry x="40" y="430" width="60" height="30" as="geometry" />
        </mxCell>
        <mxCell id="4_WIaCga24SRB5aGWBMN-38" value="" style="rounded=1;whiteSpace=wrap;html=1;fillColor=#f5f5f5;fontColor=#333333;strokeColor=#666666;" vertex="1" parent="4_WIaCga24SRB5aGWBMN-2">
          <mxGeometry x="20" y="420" width="140" height="50" as="geometry" />
        </mxCell>
        <mxCell id="4_WIaCga24SRB5aGWBMN-4" value="&lt;font style=&quot;font-size: 16px;&quot;&gt;Income&lt;/font&gt;" style="text;html=1;align=center;verticalAlign=middle;whiteSpace=wrap;rounded=0;" vertex="1" parent="4_WIaCga24SRB5aGWBMN-2">
          <mxGeometry x="30" y="425" width="120" height="40" as="geometry" />
        </mxCell>
        <mxCell id="4_WIaCga24SRB5aGWBMN-43" value="&lt;b&gt;&lt;font style=&quot;font-size: 13px;&quot;&gt;Salary&lt;/font&gt;&lt;/b&gt;" style="rounded=1;whiteSpace=wrap;html=1;" vertex="1" parent="4_WIaCga24SRB5aGWBMN-2">
          <mxGeometry x="20" y="480" width="190" height="40" as="geometry" />
        </mxCell>
        <mxCell id="4_WIaCga24SRB5aGWBMN-51" value="&lt;b&gt;+ksh. 5000&lt;/b&gt;" style="rounded=1;whiteSpace=wrap;html=1;" vertex="1" parent="4_WIaCga24SRB5aGWBMN-2">
          <mxGeometry x="260" y="480" width="100" height="40" as="geometry" />
        </mxCell>
        <mxCell id="4_WIaCga24SRB5aGWBMN-52" value="&lt;b&gt;+Ksh. 200&lt;/b&gt;" style="rounded=1;whiteSpace=wrap;html=1;" vertex="1" parent="4_WIaCga24SRB5aGWBMN-2">
          <mxGeometry x="260" y="540" width="100" height="40" as="geometry" />
        </mxCell>
        <mxCell id="4_WIaCga24SRB5aGWBMN-53" value="5. Transactions Page&lt;div&gt;&lt;br&gt;&lt;/div&gt;" style="text;html=1;align=center;verticalAlign=middle;resizable=0;points=[];autosize=1;strokeColor=none;fillColor=none;" vertex="1" parent="1">
          <mxGeometry x="2150" y="-827" width="140" height="40" as="geometry" />
        </mxCell>
      </root>
    </mxGraphModel>
  </diagram>
</mxfile>
